<?xml version="1.0" encoding="UTF-8"?>
<svg width="1200pt" height="1200pt" version="1.1" viewBox="0 0 1200 1200" xmlns="http://www.w3.org/2000/svg">
 <path d="m1105.7 450.57h-2.2227l-2.2266-0.058594h-2.2227l-2.2266-0.066406h-2.1602l-2.2266-0.058594h-2.1602l-2.6055-0.066406-2.6094-0.058594h-2.543l-2.6094-0.066406h-2.5391l-2.6055-0.058594-2.543-0.058594-2.6094-0.066406h-2.5391l-2.6094-0.066406h-2.543l-2.6094-0.058594-2.6055-0.066406h-2.5391l-2.6094-0.058594h-2.6094l-2.5391-0.066406-2.6094-0.066407-2.543-0.058593-2.6094-0.12891-2.5391-0.12891-2.6094-0.066406-2.543-0.12891-2.5391-0.12891-2.6094-0.12891-2.5977-0.13281-2.6055-0.12891-2.543-0.12891-2.6055-0.066406-2.543-0.12891-2.6094-0.12891-2.5391-0.12891-2.6094-0.12891-2.543-0.12891-2.6094-0.12891-2.5391-0.12891-2.6055-0.066406-2.543-0.12891-2.6094-0.12891-2.6055-0.12891-2.6094-0.12891-2.543-0.12891-2.6094-0.12891-2.5391-0.19141-2.6094-0.12891-2.5391-0.1875-2.6094-0.125-2.6094-0.19531-2.543-0.19141-2.5391-0.1875-2.6094-0.19141-2.5391-0.1875-2.6094-0.13281-2.6094-0.1875-2.6094-0.19141-2.5391-0.1875-2.6094-0.19141-2.5391-0.1875-5.0859-0.38281-2.6055-0.12891-2.543-0.1875-5.2188-0.38281-2.5391-0.1875-2.6055-0.19141-2.6094-0.19141-2.6094-0.1875-2.5391-0.19531-2.6094-0.25391-2.5391-0.1875-2.543-0.19141-2.6094-0.25391-2.5391-0.25391-2.6094-0.25391-2.543-0.25781-2.6055-0.25391-2.6094-0.25-2.543-0.1875-2.6094-0.25781-2.5391-0.25391-2.6094-0.25391-2.543-0.1875-2.6055-0.25781-2.543-0.25391-2.6094-0.25391-2.5391-0.1875-2.543-0.25-2.6055-0.25781-5.2188-0.50781-2.5391-0.25391-5.2188-0.50781-2.5391-0.25391-2.5469-0.25781-2.6055-0.25391-2.6094-0.3125-2.543-0.25781-2.6055-0.3125-2.543-0.25391-2.6094-0.32031-2.543-0.25391-2.6055-0.32031-2.6094-0.25391-2.5391-0.25391-2.6094-0.32031-2.543-0.25391-2.6094-0.32031-2.5391-0.25391-2.6094-0.3125-2.6055-0.25781-2.543-0.3125-2.5391-0.25391-2.6094-0.32031-2.6094-0.25391-2.5391-0.32031-2.6094-0.25391-2.6094-0.32031-2.6094-0.25391-2.5391-0.3125-2.543-0.32031-2.6055-0.32031-2.543-0.38281-2.6094-0.32031-2.543-0.3125-2.6055-0.32031-2.543-0.32031-2.6055-0.3125-2.543-0.32031-2.6094-0.32031-2.6094-0.3125-2.5391-0.32031-2.6094-0.32031-2.5391-0.3125-2.6055-0.32031-2.543-0.32031-2.6094-0.3125-2.543-0.32031-2.6055-0.32031-2.6094-0.3125-2.543-0.32031-2.6055-0.32031-2.543-0.38281-2.6094-0.32031-2.6055-0.3125-2.543-0.32031-2.6094-0.38281-2.543-0.32031-2.6055-0.38281-2.543-0.32031-2.6055-0.38281-2.543-0.32031-2.6094-0.3125-2.5391-0.32031-2.6094-0.38281-2.6094-0.32031-2.5391-0.38281-2.6094-0.32031-2.6055-0.38281-2.543-0.3125-2.543-0.32031-2.6055-0.32031-2.543-0.38281-2.543-0.32031-2.5391-0.38281-2.543-0.32031-2.6055-0.38281-2.543-0.32031-2.6094-0.38281-2.6094-0.3125-2.6055-0.38672-2.543-0.3125-2.6055-0.38281-2.543-0.32031-2.543-0.38281-2.6094-0.38672-2.6055-0.3125-2.543-0.38281-2.6055-0.32031-2.543-0.38281-2.6094-0.37891-2.5391-0.38672-2.6094-0.3125-2.0977-0.32031-2.0977-0.25391-2.0977-0.32031-2.0977-0.25391-2.1016-0.32031-2.0977-0.25391-2.0977-0.3125-2.1016-0.32031-1.0117-0.12891-2.8594-0.38672-2.543-0.38281-2.6055-0.32031-2.543-0.38281-2.6094-0.38672-2.5391-0.37891-2.6094-0.31641-2.6094-0.38672-2.6055-0.3125-2.543-0.38281-2.543-0.38672-2.6055-0.38281-2.543-0.3125-2.6094-0.38672-2.5391-0.38281-2.6094-0.32031-2.543-0.38281-2.6055-0.32031-2.6094-0.38281-2.5391-0.32031-2.6094-0.38281-2.6094-0.3125-2.5391-0.38281-2.6094-0.38672-2.543-0.3125-2.6055-0.38672-2.543-0.38281-2.6094-0.38281-2.5391-0.32031-2.6094-0.37891-2.543-0.32031-2.6055-0.38281-2.6094-0.32031-2.543-0.38281-2.6055-0.3125-2.6094-0.38672-2.543-0.3125-2.6055-0.38672-2.543-0.3125-2.6094-0.38281-2.5391-0.32031-2.6094-0.38281-2.5391-0.32031-2.6094-0.38281-2.5391-0.32031-2.6094-0.38281-2.6094-0.32031-2.5391-0.38281-2.6094-0.38281-2.543-0.32031-2.6094-0.3125-2.5391-0.38672-2.6094-0.3125-2.6094-0.32031-2.5391-0.38281-2.6094-0.32031-2.6094-0.3125-2.5391-0.32031-2.6094-0.32031-2.543-0.38281-2.6055-0.32031-2.543-0.3125-2.6094-0.32031-2.5391-0.32031-2.543-0.38281-2.6055-0.3125-5.2188-0.64062-2.5391-0.38281-2.6094-0.32031-2.5391-0.3125-2.6094-0.38672-2.543-0.3125-2.6094-0.32031-2.5391-0.3125-2.6094-0.32031-2.543-0.32031-2.6055-0.32031-2.543-0.3125-2.5391-0.25391-2.543-0.32031-2.6055-0.32031-2.6094-0.32031-2.6094-0.25391-2.6094-0.3125-2.6094-0.32031-2.5391-0.25391-2.6094-0.32031-2.6055-0.3125-2.543-0.25781-2.5391-0.3125-2.543-0.25391-2.6094-0.32031-2.543-0.32031-2.6094-0.25391-2.6055-0.3125-2.6094-0.25781-2.6055-0.31641-5.0859-0.64062-2.543-0.25391-2.6094-0.25391-2.5391-0.3125-2.6094-0.25781-2.6094-0.25391-2.5391-0.25391-2.6094-0.25391-2.543-0.25391-2.6055-0.25391-2.6094-0.25391-2.6094-0.25781-5.0781-0.50781-2.6094-0.25391-2.543-0.25391-2.6094-0.25391-2.543-0.25391-2.5391-0.19141-2.6094-0.25391-2.5391-0.32031-2.6094-0.25391-2.5391-0.25391-2.6094-0.19141-2.6094-0.25-2.6094-0.25391-2.5391-0.25391-2.6094-0.19141-2.5391-0.1875-2.543-0.25781-2.6055-0.1875-2.6094-0.1875-2.5391-0.19141-2.6094-0.19141-2.543-0.19141-2.6055-0.1875-2.543-0.19141-2.6094-0.1875-2.6055-0.19141-2.6055-0.25391-2.5469-0.19141-2.6094-0.1875-2.5391-0.19141-2.6055-0.1875-2.543-0.19141-2.6094-0.19141-2.5391-0.1875-2.6055-0.19141-2.543-0.1875-2.6094-0.19141-2.543-0.12891-2.6055-0.19141-5.2188-0.25781-2.5391-0.12891-2.543-0.12891-2.6094-0.12891-2.543-0.12891-2.6055-0.12891-2.543-0.12891-2.6094-0.066406-2.5391-0.12891-2.6094-0.12891-2.6094-0.19141-2.5391-0.12891-2.6094-0.12891-2.6055-0.12891-2.543-0.12891-2.6094-0.12891-2.5391-0.12891-2.6094-0.12891-2.5391-0.125-2.6094-0.066406-2.6094-0.12891-2.5391-0.12891-2.6094-0.058593-2.543-0.066407h-2.6055l-2.543-0.058593-2.6094-0.066407-2.5391-0.066406h-2.6094l-2.6055-0.054687-2.543-0.070313-2.6094-0.058594-2.543-0.066406-2.4727 0.21094-2.6055-0.058594h-2.543l-2.6055-0.066406-2.543-0.058594h-2.6055l-2.543-0.066406-2.6094-0.058594h-2.3516l-2.4141-0.066406-2.3516-0.058594-2.3555-0.066406v488.35l4.707-0.13281h2.4141l2.3516-0.058594 2.6094-0.058594 2.543-0.066406 2.6055-0.066406 2.543-0.12891 2.6055-0.058594 2.543-0.066406 2.6055-0.058594 2.6094-0.066406 2.543-0.058594 2.6094-0.066406 2.543-0.058594 2.6055-0.066406 2.6094-0.058594 2.5391-0.066406 2.6094-0.058594 2.543-0.066406 2.6055-0.066407 2.543-0.12891 2.6094-0.12891 2.5391-0.12891 2.6094-0.12891 2.6094-0.1875 2.5391-0.19141 2.6094-0.19141 2.5391-0.1875 2.6094-0.12891 2.543-0.19141 2.6055-0.1875 2.6094-0.19141 2.5391-0.19141 2.6094-0.1875 2.6094-0.19141 2.5391-0.1875 2.6094-0.19141 2.543-0.12891 2.6055-0.19141 2.543-0.1875 2.6094-0.12891 2.543-0.19141 2.5391-0.19141 2.6094-0.25391 2.6094-0.1875 2.6055-0.32031 2.543-0.25391 2.6094-0.25391 2.543-0.32031 2.6055-0.25391 2.5391-0.25391 2.6094-0.25391 2.543-0.32031 2.6055-0.25391 2.5391-0.32031 2.6094-0.25391 2.5469-0.32031 5.2109-0.50781 2.6094-0.32031 2.543-0.25391 2.6055-0.25391 2.543-0.3125 2.6094-0.25781 2.5391-0.3125 2.6094-0.25781 2.6055-0.3125 2.543-0.32031 2.5391-0.32031 2.6094-0.38281 2.5391-0.3125 2.6094-0.32031 2.6094-0.38281 2.6094-0.38672 2.5391-0.3125 2.6094-0.38281 2.5391-0.32031 2.6094-0.38281 2.5391-0.38281 2.543-0.32031 2.6094-0.38281 2.543-0.32031 2.6094-0.38281 2.5391-0.38281 2.5391-0.32031 5.2188-0.76562 2.6055-0.38672 2.543-0.3125 2.6094-0.38672 2.5391-0.3125 2.6094-0.44531 2.6094-0.38281 2.5391-0.44531 2.6094-0.38281 2.543-0.44531 2.543-0.38281 2.543-0.44531 2.6055-0.44531 2.6094-0.38281 2.6055-0.44531 2.6094-0.38281 2.543-0.44141 2.6094-0.38672 2.543-0.44141 2.5391-0.38672 2.543-0.44141 2.6055-0.38672 2.6094-0.44141 2.5391-0.44531 2.6094-0.38281 5.2188-0.89063 2.6094-0.38281 2.6055-0.44531 2.543-0.44141 2.5391-0.44531 2.543-0.44531 2.6055-0.50781 2.543-0.44531 2.6094-0.44531 2.5391-0.50781 2.6094-0.44531 2.543-0.44141 2.6094-0.44531 2.5391-0.44531 2.6094-0.50781 2.5391-0.44531 2.6094-0.44141 2.6094-0.51172 2.6055-0.44141 2.543-0.44531 2.5391-0.44531 2.6094-0.44531 2.543-0.50781 2.6055-0.44531 2.543-0.44141 2.6094-0.44531 2.5391-0.44531 2.6094-0.50781 2.6094-0.51172 2.5391-0.50781 2.6094-0.44141 2.6094-0.51172 2.5391-0.50781 2.6094-0.44531 2.543-0.50781 2.6094-0.50781 2.5391-0.44531 2.6094-0.50781 2.5391-0.51172 2.6094-0.44141 2.5391-0.51172 2.6094-0.44141 2.6094-0.51172 2.5391-0.50781 2.6094-0.50781 2.543-0.44531 2.6055-0.50781 2.543-0.51172 2.6094-0.44141 2.6055-0.51172 2.543-0.50781 2.6094-0.44141 2.6055-0.51172 2.543-0.50781 2.6094-0.50781 2.5391-0.51172 2.6094-0.44141 2.543-0.51172 2.6055-0.50781 2.543-0.50781 2.6094-0.44531 2.5391-0.50781 2.6094-0.51172 2.6094-0.50781 2.5391-0.50781 2.6094-0.50781 2.6055-0.51172 2.543-0.44141 2.6094-0.51172 2.5391-0.50781 2.6094-0.50781 2.543-0.50781 2.6055-0.44531 2.543-0.50781 2.543-0.51172 2.6055-0.50781 2.6094-0.44531 2.6094-0.50781 2.5391-0.50781 2.6094-0.50781 2.543-0.51172 2.6055-0.50781 2.543-0.44531 0.95312-0.1875 0.95312-0.19141 0.95312-0.1875 1.0117-0.19141 2.1016-0.38281 2.0977-0.38281 2.0977-0.44531 2.1016-0.38281 2.0977-0.38672 4.1953-0.76562 2.0977-0.44531 2.6094-0.50781 2.5391-0.44531 2.6094-0.50781 2.543-0.50781 2.6055-0.50781 2.543-0.44531 2.6055-0.51172 2.6094-0.50781 2.543-0.44531 2.543-0.50781 2.6055-0.44531 2.543-0.50781 2.6055-0.44531 2.6094-0.50781 2.6094-0.44531 2.543-0.50781 2.6055-0.44531 2.543-0.50781 2.5391-0.44531 2.543-0.44141 2.543-0.51172 2.6055-0.44531 2.543-0.50781 2.543-0.44141 2.6055-0.51172 2.6094-0.44531 2.5391-0.44141 2.6094-0.50781 2.6094-0.44531 2.5391-0.50781 2.6094-0.44531 2.543-0.44531 2.6055-0.50781 2.543-0.44531 2.6055-0.44531 2.543-0.44531 2.6094-0.44141 2.543-0.44531 2.6055-0.44531 2.6094-0.44141 2.543-0.44531 2.6055-0.44531 2.543-0.38281 2.6094-0.44531 2.6055-0.44531 2.543-0.44141 2.6094-0.44531 2.543-0.44531 2.6055-0.44531 2.5391-0.44141 2.6094-0.44531 2.5391-0.44531 2.6094-0.44141 2.6094-0.44531 2.543-0.44531 2.6055-0.44531 2.543-0.44531 2.6055-0.38281 2.543-0.44141 2.6094-0.44531 2.543-0.38281 2.6055-0.38281 2.543-0.44531 2.5391-0.38281 2.6094-0.38672 2.6094-0.38281 2.6094-0.44531 2.5391-0.38281 5.2188-0.76562 2.5391-0.38281 2.543-0.38672 2.6055-0.38281 2.6094-0.38281 2.5391-0.38281 2.6094-0.38281 2.543-0.38672 2.6094-0.38281 2.5391-0.38281 2.6094-0.38281 2.6055-0.38281 2.543-0.38672 2.6094-0.44141 2.543-0.38281 2.6055-0.32031 2.543-0.38281 2.6094-0.38672 2.6055-0.38281 2.5469-0.3125 2.5391-0.32031 5.2188-0.64062 2.5391-0.3125 2.6094-0.32031 2.6094-0.38281 2.6055-0.32031 2.543-0.32031 2.5391-0.3125 2.6094-0.32031 2.543-0.3125 2.6055-0.32031 2.543-0.32031 2.6094-0.3125 2.5391-0.32031 2.6094-0.38281 2.543-0.32031 2.6094-0.32031 2.6055-0.3125 2.543-0.32031 2.6094-0.32031 2.5391-0.3125 2.6094-0.32031 2.543-0.25391 2.5391-0.25391 2.6094-0.25781 2.5391-0.25391 5.2188-0.50781 2.6055-0.25391 2.5391-0.25391 2.6094-0.25391 2.6094-0.25781 2.543-0.25391 2.6055-0.25391 5.0859-0.50781 2.5391-0.19141 2.6094-0.25391 2.5391-0.25391 7.8281-0.76172 2.5391-0.25781 2.6094-0.25391 2.5391-0.25391 2.543-0.25391 2.6094-0.1875 2.6094-0.19141 2.5391-0.19141 2.6094-0.1875 2.5391-0.19141 2.6094-0.19141 2.543-0.1875 2.6094-0.12891 2.6055-0.19141 2.6094-0.12891 2.543-0.12891 2.6055-0.19141 2.5391-0.12891 2.6094-0.1875 2.543-0.19141 2.6094-0.12891 2.5391-0.1875 2.6094-0.13281 2.543-0.1875 2.6055-0.12891 2.543-0.19141 2.6055-0.12891 2.6094-0.1875 2.6094-0.13281 2.5391-0.1875 2.543-0.12891 2.6094-0.12891 2.5391-0.12891 2.6094-0.12891 2.543-0.12891 2.6094-0.066406 2.5391-0.058594 5.2188-0.13281 2.5391-0.058593h2.6055l2.6094-0.066407 2.543-0.058593 2.6094-0.066407 2.5391-0.058593 2.6094-0.066407 2.543-0.058593h2.6055l2.5391-0.066407 2.6094-0.058593 2.543-0.066407 2.6094-0.058593 2.6055-0.066407h2.1602l2.2266-0.066406 4.4453-0.11719h2.2305l2.1602-0.066407 2.2227-0.066406 2.2266-0.058594v-261.9l-2.375 0.12891zm-865.88-33.883v-32.996l0.12891-0.51172 0.12891-0.50781 0.125-0.38281 0.1875-0.32031 0.1875-0.25391 0.25781-0.12891 0.1875-0.058594 1.1445 0.12891 0.76562 0.058594 0.76562 0.066406 1.0117 0.058594 0.63672 0.066406h0.82812l1.0156 0.0625 1.2734 0.125 0.1875 0.066406 0.19141 0.1875 0.1875 0.25781 0.1875 0.3125 0.12891 0.44531 0.13672 0.45312 0.0625 0.57422 0.0625 0.56641v32.355l-0.0625 0.64062-0.0625 0.56641-0.25781 0.89062-0.1875 0.32031-0.1875 0.25391-0.19141 0.12891-0.1875 0.058593-1.0195-0.058593-0.76172-0.066407h-0.82812l-1.1445-0.058593-0.69531-0.066407h-0.82812l-0.95312-0.058593-1.207-0.066407-0.1875-0.058593-0.25781-0.19141-0.1875-0.25391-0.1875-0.38281-0.125-0.44531-0.12891-0.50781-0.12891-0.57422-0.003907-0.69531zm-20.527-1.0781v-33.312l0.0625-0.50781 0.12891-0.50781 0.1875-0.38672 0.12891-0.3125 0.1875-0.25391 0.1875-0.13281 0.1875-0.058594 1.1445 0.058594 0.76172 0.066406 0.76562 0.066406 1.0117 0.12109h0.69922l0.82812 0.066406 1.0156 0.066407 1.207 0.12891 0.25391 0.058594 0.19141 0.12891 0.1875 0.25391 0.1875 0.38672 0.12891 0.38281 0.125 1.0156 0.0625 0.64062v32.539l-0.0625 0.63672-0.0625 0.64063-0.0625 0.50781-0.12891 0.38281-0.1875 0.38281-0.1875 0.25781-0.19141 0.12891-0.25391 0.058594-1.0156-0.058594-0.76172-0.066406h-0.76562l-1.207-0.12891h-0.69531l-0.76562-0.066406-1.0195-0.0625-1.207-0.066406-0.1875-0.058594-0.1875-0.19141-0.1875-0.25391-0.12891-0.38281-0.1875-0.44531-0.12891-0.50781-0.0625-0.57422v-0.64062zm-20.66-0.82812v-33.504l0.066406-0.57422 0.25781-0.89062 0.1875-0.3125 0.19141-0.19141 0.25391-0.19141h1.3359l0.76562 0.066406h0.69922l1.0117 0.058594h0.69922l0.89062 0.066406h1.0156l1.2695 0.058594 0.1875 0.066406 0.19141 0.19531 0.12891 0.25 0.12891 0.3125 0.12891 0.44531 0.0625 0.44531 0.0625 0.57422v34.07l-0.0625 0.63672-0.0625 0.50781-0.12891 0.38672-0.12891 0.38281-0.12891 0.25391-0.19141 0.12891-0.1875 0.066406-1.082-0.066406-0.76562-0.058594h-2.6719l-0.76562-0.066406h-2.1562l-0.25391-0.066406-0.25391-0.1875-0.19141-0.32031-0.1875-0.3125-0.12891-0.44531-0.12891-0.50781-0.066406-0.57422-0.003907-0.70312zm-20.664-4.8984v-28.922l0.125-1.1484 0.0625-0.50781 0.1875-0.38281 0.12891-0.32031 0.44531-0.44531h0.25391l1.082 0.066406h0.76562l0.76562 0.058594 1.082 0.066406h1.5273l1.0117 0.066407 1.207 0.058593 0.19531 0.058594 0.1875 0.13281 0.19141 0.25391 0.125 0.38281 0.12891 0.44531 0.125 0.44141 0.066406 0.57422v34.266l-0.066406 0.57422-0.125 0.50391-0.12891 0.44531-0.125 0.3125-0.19141 0.25781-0.1875 0.1875h-3.9453l-0.69922-0.058594-0.82812-0.066406-1.0156-0.058594h-1.1445l-0.25391-0.066406-0.44531-0.44531-0.12891-0.38281-0.1875-0.44531-0.0625-0.50781-0.0625-0.57422-0.0625-0.69922 0.003906-4.1211zm-20.531 3.4375v-33.891l0.0625-0.50781 0.12891-0.50781 0.12891-0.44531 0.1875-0.32031 0.1875-0.25391 0.19141-0.125 0.25391-0.066407 1.082 0.066407 0.82812 0.058593h0.69922l1.0156 0.066407h0.63672l0.82422 0.058593 1.082 0.066407 1.207 0.066406 0.19141 0.058594 0.1875 0.12891 0.1875 0.25391 0.12891 0.38672 0.12891 0.38281 0.12891 0.50391 0.066406 0.50781v34.461l-0.066406 0.56641-0.12891 0.57422-0.12891 0.44531-0.12891 0.32031-0.1875 0.25391-0.1875 0.1875-0.19141 0.066406-1.0117-0.066406h-0.76562l-0.82422-0.058594-1.1445-0.066406h-0.69922l-0.82812-0.058594h-1.0156l-1.082-0.066406-0.25391-0.058594-0.19141-0.12891-0.375-0.64062-0.12891-0.44141-0.12891-0.51172-0.0625-0.63672 0.003906-0.62891zm-20.719-0.38672v-34.012l0.0625-0.50781 0.12891-0.51172 0.375-0.76562 0.1875-0.19141 0.19141-0.19141h7.6875l0.19141 0.066407 0.12891 0.19141 0.1875 0.25391 0.1875 0.37891 0.12891 0.38281 0.058593 0.50781 0.125 1.1484 0.003907 4.1328v29.242l-0.0625 0.64062-0.0625 0.63672-0.058594 0.50781-0.12891 0.44531-0.1875 0.32031-0.1875 0.25-0.12891 0.19141h-1.2695l-0.76172-0.003907h-2.6055l-0.82812-0.066406h-1.0156l-1.1445 0.066406-0.25391-0.12891-0.19141-0.19141-0.1875-0.25391-0.1875-0.38281-0.1875-0.44531-0.12891-0.51172-0.0625-0.56641-0.007813-0.63281zm-20.664-0.25391v-34.008l0.125-0.57422 0.12891-0.50781 0.125-0.38672 0.19141-0.38281 0.25391-0.25391 0.19141-0.12891 0.1875-0.066406h4.3203l0.82813 0.066406h1.0195l1.2695 0.058594h0.1875l0.25781 0.19141 0.1875 0.25391 0.12891 0.32031 0.12891 0.44141 0.12891 0.51172 0.066407 0.50781v34.715l-0.066407 0.56641-0.12891 0.51172-0.12891 0.44141-0.12891 0.38672-0.1875 0.25391-0.25781 0.1875-0.1875 0.066407-1.0156-0.066407h-1.5273l-1.207-0.058593h-3.6836l-0.1875-0.066407-0.19141-0.12891-0.25391-0.25391-0.19141-0.38281-0.125-0.44531-0.12891-0.50781-0.125-0.57422zm-20.535-0.32031v-34.078l0.066406-0.57422 0.12891-0.50781 0.1875-0.38281 0.19141-0.38281 0.1875-0.19141 0.1875-0.1875h4.5156l0.82813 0.058594h2.3516l0.1875 0.066406 0.12891 0.1875 0.1875 0.25391 0.1875 0.38672 0.12891 0.38281 0.0625 0.50781 0.125 1.1484v33.441l-0.0625 0.69531-0.0625 0.57422-0.0625 0.51172-0.12891 0.44141-0.1875 0.38672-0.1875 0.25391-0.12891 0.12891-0.1875 0.058594h-5.2812l-1.0195-0.058594h-1.1445l-0.25391-0.066406-0.1875-0.1875-0.1875-0.25781-0.19141-0.38281-0.1875-0.44531-0.12891-0.50781-0.066407-0.57422zm9.6641 380-0.0625 4.1953v12.59l-0.0625 4.1328v8.8945l-0.0625 0.57422-0.12891 0.51172-0.125 0.38281-0.12891 0.38281-0.1875 0.25391-0.19141 0.19141-0.1875 0.058594h-1.7773l-0.82812 0.066406h-1.7812l-0.82812 0.058594h-2.2227l-0.19922-0.003906-0.25391-0.1875-0.1875-0.25391-0.19141-0.32031-0.25781-0.89062-0.12891-0.56641v-0.57422l0.0625-4.1953v-12.461l0.0625-4.1953v-13.352l0.066407-0.57422 0.12891-0.57422 0.12891-0.44531 0.12891-0.3125 0.1875-0.32031 0.25391-0.12891 0.1875-0.066406 1.1445-0.058594h4.0078l1.0156-0.066406h1.2695l0.1875 0.066406 0.19141 0.12891 0.1875 0.25391 0.19141 0.38281 0.12891 0.44531 0.12891 0.50781 0.0625 0.57422 0.0625 0.69922v4.1953zm20.535-0.44531v4.1992l-0.0625 4.1953v8.3281l-0.0625 4.1953v8.9023l-0.125 1.0156-0.12891 0.44531-0.12891 0.32031-0.1875 0.3125-0.12891 0.12891-0.1875 0.066406-1.082 0.066406-0.76953-0.003906h-0.76172l-1.1445 0.058594h-3.9375l-0.19141-0.19141-0.1875-0.25391-0.19141-0.3125-0.1875-0.44531-0.12891-0.44531-0.0625-0.57422v-34.711l0.0625-0.57422 0.12891-0.50781 0.1875-0.44531 0.19141-0.38281 0.1875-0.25391 0.19141-0.19141 0.25391-0.066406h3.6836l0.63672-0.058594h1.8477l1.2695-0.066406 0.1875 0.066406 0.19141 0.12891 0.12891 0.25391 0.1875 0.38281 0.12891 0.44531 0.0625 0.50781 0.0625 0.57422 0.0625 0.69922-0.007812 4.1914zm20.656-0.37891-0.0625 4.1953v8.3281l-0.0625 4.1992v13.031l-0.058594 0.50781-0.12891 0.50781-0.12891 0.38672-0.12891 0.3125-0.12891 0.25781-0.1875 0.1875-0.12891 0.066406h-1.8438l-0.76172 0.058594h-1.207l-0.63672 0.066406h-1.8438l-1.1445 0.058594-0.25391-0.058594-0.25781-0.19141-0.1875-0.1875-0.1875-0.38672-0.12891-0.38281-0.12891-0.50781-0.0625-0.50781v-33.953l-0.003906-0.69922 0.0625-0.56641 0.12891-0.57422 0.12891-0.44531 0.1875-0.32031 0.1875-0.3125 0.25781-0.12891 0.25391-0.066407h1.082l0.76562-0.058593h2.4805l0.82812-0.066407h1.0117l1.2695-0.058593 0.12891 0.058593 0.1875 0.19141 0.12891 0.25391 0.1875 0.32031 0.12891 0.44141 0.125 0.57422 0.0625 0.57422 0.0625 0.69922-0.003906 4.1953zm20.531-5.3438v33.758l-0.058594 0.56641-0.12891 0.51172-0.066407 0.38281-0.1875 0.38281-0.12891 0.25391-0.1875 0.19141-0.19141 0.058593-1.082 0.066407-0.76172 0.066406-0.76562 0.058594-1.1445 0.066406-0.69922 0.058594-0.82812 0.066406h-1.0156l-1.082 0.058594h-0.25391l-0.25781-0.1875-0.1875-0.19141-0.19141-0.38281-0.12891-0.38281-0.12891-0.44531-0.125-1.1484 0.0625-4.1289v-4.1328l0.0625-4.1328v-21.488l0.0625-0.64062 0.25781-1.0156 0.12891-0.32031 0.1875-0.32031 0.25781-0.1875 0.25391-0.066407h1.0156l0.76562-0.058593 0.82813-0.066407 1.0156-0.058593h0.63672l0.82422-0.066407 1.082-0.058593h1.3984l0.1875 0.1875 0.12891 0.25391 0.1875 0.32031 0.066406 0.44531 0.12891 0.50781 0.058593 0.57422v0.64453zm20.66 3.0547v28.793l-0.058594 0.63672-0.0625 0.50781-0.0625 0.51172-0.25781 0.76562-0.19141 0.25391-0.1875 0.19141-0.1875 0.058594-1.082 0.066406h-0.69922l-0.76562 0.058594-1.1445 0.066406-0.69922 0.058594-0.82812 0.066406-1.0156 0.058594-1.207 0.066406h-0.25391l-0.1875-0.12891-0.19141-0.25391-0.1875-0.32031-0.12891-0.44531-0.0625-0.44141-0.125-1.1484v-33.117l0.0625-0.64063 0.0625-0.63672 0.0625-0.50781 0.12891-0.44531 0.1875-0.3125 0.19141-0.32031 0.1875-0.12891 0.25391-0.066406 1.082-0.058594 0.82422-0.058594 0.76562-0.066406 1.082-0.066406 0.69922-0.058594h0.76562l1.0156-0.066406 1.207-0.066406 0.1875 0.066406 0.1875 0.12891 0.19141 0.25391 0.12891 0.38281 0.12891 0.38672 0.0625 0.50781 0.0625 0.63672 0.058594 0.64062 0.003906 4.1914zm20.602-5.4102v33.434l-0.0625 0.51172-0.125 0.50781-0.12891 0.44531-0.12891 0.3125-0.19141 0.25391-0.1875 0.19141-0.1875 0.058594-1.0156 0.13281-0.76562 0.058594h-0.82422l-1.1445 0.12891h-0.63672l-0.82422 0.066406-1.0195 0.058594-1.1445 0.066406-0.25781-0.066406-0.1875-0.12891-0.25391-0.1875-0.19141-0.32031-0.125-0.44531-0.12891-0.44141-0.0625-0.57422-0.066406-0.57422 0.066406-4.0664v-4.1328l0.0625-4.0664v-21.297l0.066406-0.57422 0.12891-0.57422 0.12891-0.44141 0.1875-0.32031 0.19141-0.32031 0.1875-0.12891 0.25781-0.058594 1.0117-0.12891h0.82813l0.76562-0.066406 1.0117-0.066406 0.69922-0.058594h0.82812l1.0156-0.066406 1.207-0.058594 0.1875 0.058594 0.1875 0.12891 0.19141 0.25781 0.12891 0.3125 0.12891 0.44531 0.125 0.50781 0.0625 0.57422-0.003906 0.65234zm20.656-1.8398v12.332l-0.0625 4.0664v16.266l-0.0625 0.57422-0.0625 0.50781-0.0625 0.51172-0.12891 0.44141-0.12891 0.32031-0.12891 0.25391-0.19141 0.19141-0.1875 0.058594-1.0156 0.13281-0.76172 0.058594-0.82813 0.066406-1.1445 0.058594-0.69531 0.12891-0.76562 0.066406-1.0195 0.058594-1.207 0.19141-0.1875-0.066406-0.25391-0.12891-0.1875-0.1875-0.19141-0.38672-0.12891-0.38281-0.12891-0.44531-0.066406-0.56641-0.0625-0.57422 0.0625-4.0664v-8.1328l0.066406-4.0742v-17.094l0.0625-0.57422 0.12891-0.51172 0.12891-0.44141 0.1875-0.38281 0.1875-0.25781 0.1875-0.1875 0.1875-0.12891 1.082-0.066406 0.82422-0.058594 0.76562-0.066406 1.0117-0.058594 0.69922-0.066406 0.82812-0.058594 1.0156-0.066406 1.207-0.12891 0.1875 0.058594 0.19141 0.13281 0.1875 0.25391 0.12891 0.3125 0.12891 0.38672 0.12891 0.50781 0.0625 0.57422 0.007812 0.64844zm20.66-1.7812v8.1992l-0.058593 4.0078v12.074l-0.066407 4.0664v4.582l-0.0625 0.50781-0.125 0.50781-0.12891 0.44531-0.12891 0.32031-0.1875 0.25391-0.19141 0.1875-0.1875 0.066406-0.94922 0.12891-0.76562 0.058594-0.76172 0.066406-1.1445 0.058594-0.69531 0.13281-0.82813 0.058594-1.0156 0.12891-1.207 0.12891h-0.25391l-0.19141-0.12891-0.1875-0.25391-0.1875-0.32031-0.12891-0.38281-0.12891-0.50781-0.0625-0.50781v-33.691l0.0625-0.57422 0.12891-0.50781 0.12891-0.44531 0.1875-0.38281 0.1875-0.25781 0.19141-0.1875h0.25391l1.1445-0.19141 0.76562-0.058594 0.76563-0.066406 1.0781-0.12891h0.63672l0.82812-0.058594 1.0156-0.12891 1.1445-0.066407h0.1875l0.25391 0.19141 0.12891 0.1875 0.1875 0.38672 0.1875 0.38281 0.0625 0.50781 0.12891 0.57422-0.007812 0.63672zm4.0742-22.184-8.8398 0.76172-41.32 3.1797-20.531 0.95313-20.66 1.1406-20.66 0.82813-20.598 0.38672-18.625 0.38281 0.003906-330.61 18.625 0.19141 20.598 0.1875 20.66 0.44531 41.191 1.2773 20.66 0.76172 20.66 0.95312 8.8398 0.38281zm151.35-329.33v-30.133l0.0625-0.51172 0.12891-0.44141 0.12891-0.32031 0.1875-0.32031 0.1875-0.1875 0.1875-0.12891h0.1875l1.1445 0.12891 0.76172 0.058593 0.76562 0.066407 1.0156 0.12891 0.69531 0.12891 0.82812 0.058594 1.0156 0.12891 1.207 0.13281 0.19141 0.058594 0.1875 0.19141 0.1875 0.25391 0.12891 0.32031 0.12891 0.38281 0.12891 0.44141 0.0625 0.51172v30.516l-0.0625 0.50781-0.12891 0.51172-0.12891 0.38281-0.12891 0.25391-0.1875 0.25391-0.1875 0.12891h-0.19141l-1.0156-0.058594-0.76562-0.066406-0.82812-0.12891-1.1445-0.066406-0.69531-0.058594-0.76562-0.066406-1.0117-0.058594-1.2109-0.12891-0.1875-0.066406-0.1875-0.1875-0.1875-0.25391-0.1875-0.32031-0.12891-0.44531-0.12891-0.44141-0.0625-0.51172 0.007812-0.64453zm-20.656-1.7812v-30.578l0.12891-0.50781 0.0625-0.38672 0.1875-0.38281 0.1875-0.25391 0.12891-0.25391 0.25-0.12891 0.1875-0.066406 1.082 0.13281 0.82812 0.12891 0.76172 0.058594 1.082 0.12891 0.57031 0.066406 0.82812 0.058594 1.0156 0.12891 1.2109 0.12891 0.25391 0.13281 0.1875 0.12109 0.1875 0.25781 0.19141 0.3125 0.12891 0.38672 0.12891 0.44141 0.0625 0.50781v30.965l-0.0625 0.57031-0.12891 0.44531-0.12891 0.38281-0.19141 0.32031-0.1875 0.19141-0.1875 0.1875h-0.25391l-0.95312-0.058594-0.76563-0.066406-0.76562-0.058594-1.1445-0.066406-0.76562-0.12891-0.82812-0.066407-1.0117-0.058593-1.1445-0.12891-0.1875-0.066406-0.25-0.12891-0.12891-0.3125-0.1875-0.32031-0.1875-0.38281-0.0625-0.51172-0.12891-0.56641-0.003906-0.57422zm-20.66-5.4688v-26.645l0.066406-0.57422 0.0625-0.50391 0.12891-0.44922 0.12891-0.37891 0.1875-0.25391 0.19141-0.19141 0.25391-0.12891 0.1875-0.058593 1.082 0.12891 0.76172 0.058594 0.76172 0.12891 0.95703 0.12891h0.69531l0.89062 0.13281 1.0156 0.12891 1.2734 0.12891 0.1875 0.058594 0.1875 0.12891 0.1875 0.25391 0.12891 0.32031 0.25781 0.89062 0.058593 0.50781v31.41l-0.058593 0.50781-0.12891 0.50781-0.12891 0.38281-0.12891 0.25781-0.1875 0.25391-0.1875 0.12891h-0.1875l-1.0156-0.066406-0.76562-0.058594-0.82812-0.066406-1.2695-0.058594-0.57422-0.066406-0.82422-0.058594-0.95312-0.066406-1.207-0.12891-0.1875-0.066407-0.25391-0.1875-0.19141-0.25391-0.1875-0.32031-0.12891-0.44531-0.12891-0.44141-0.0625-0.57422-0.066406-0.57422zm-20.66-1.7148v-27.023l0.066407-0.56641 0.058593-0.51172 0.12891-0.44141 0.12891-0.38281 0.1875-0.25781 0.25391-0.25391 0.19141-0.12891h0.25391l1.0156 0.12891 0.76562 0.066406 0.76172 0.058594 1.0156 0.12891 0.69922 0.066406 0.89062 0.066406 1.0156 0.12891 1.2109 0.12109 0.1875 0.066406 0.19141 0.19141 0.1875 0.25391 0.12891 0.3125 0.12891 0.38672 0.12891 0.44141 0.058593 0.51172v31.859l-0.058593 0.50781-0.12891 0.51172-0.12891 0.38281-0.12891 0.32031-0.1875 0.25391-0.19141 0.12891h-0.1875l-1.0195-0.066406-0.76172-0.058594-0.82812-0.066406-1.2109-0.058594-0.63672-0.066406-0.76562-0.058594-1.0156-0.066406-1.1445-0.12891-0.25391-0.058594-0.44531-0.44531-0.1875-0.32031-0.12891-0.44531-0.12891-0.50781-0.058594-0.50391-0.066406-0.64062 0.003906-3.8359zm-20.535-1.6523v-27.27l0.066406-0.57422 0.058594-0.51172 0.066406-0.44141 0.12891-0.38281 0.1875-0.32031 0.19141-0.19141 0.1875-0.12891h0.25781l1.082 0.066407 0.82422 0.058593 0.76172 0.066407 0.95312 0.058593 0.69922 0.066407 0.82812 0.12891 1.0156 0.058594 1.2695 0.13281 0.19141 0.058594 0.1875 0.12891 0.19141 0.25391 0.12891 0.38281 0.125 0.38672 0.066406 0.44141 0.058594 0.51172 0.0625 0.56641v31.082l-0.0625 0.64062-0.058594 0.50781-0.066406 0.50781-0.125 0.38672-0.12891 0.3125-0.19141 0.25781-0.1875 0.12109-0.19141 0.066406-1.082-0.12891-0.69922-0.058594-0.82812-0.066406-1.207-0.066406-0.63672-0.058594-0.82812-0.066406-1.0156-0.058594-1.1445-0.066406-0.25781-0.058594-0.1875-0.19141-0.19141-0.25391-0.1875-0.32031-0.12891-0.44531-0.066407-0.50781-0.058593-0.57422-0.066407-0.63672 0.003907-3.8711zm-20.656-1.4648v-27.594l0.0625-0.57031 0.0625-0.51172 0.12891-0.44141 0.125-0.38672 0.19141-0.3125 0.1875-0.25391 0.25391-0.12891 0.25391-0.066406 1.0117 0.12891 0.76562 0.066407 0.76172 0.058593 1.0195 0.066407 0.63672 0.058593 0.88672 0.12891 1.082 0.066406 1.207 0.12891 0.1875 0.058594 0.12891 0.19141 0.19141 0.25391 0.12891 0.32031 0.12891 0.38281 0.0625 0.50781 0.0625 0.51172 0.066406 0.57422v31.406l-0.066406 0.57422-0.0625 0.57422-0.0625 0.50781-0.12891 0.38281-0.12891 0.32031-0.19141 0.25391-0.12891 0.12891-0.1875 0.066406-1.082-0.066406-0.76562-0.058594-0.76172-0.066406-1.207-0.058594-0.69922-0.066406-0.82812-0.066407-0.95312-0.058593-1.082-0.066407-0.25391-0.058593-0.25391-0.19141-0.1875-0.25391-0.19141-0.32031-0.125-0.44141-0.12891-0.50781-0.0625-0.57422-0.0625-0.64062v-3.957zm-20.598 2.4766v-32.488l0.0625-0.50781 0.12891-0.44531 0.12891-0.38281 0.19141-0.32031 0.1875-0.25391 0.25781-0.12891h0.25391l1.0156 0.066406 0.82812 0.058594 0.76562 0.066406 1.0156 0.12891h0.63672l0.82422 0.12891 1.0156 0.13281 1.3359 0.12109 0.12891 0.066406 0.1875 0.12891 0.12891 0.25391 0.19141 0.3125 0.125 0.44531 0.12891 0.44531 0.125 1.1484v31.719l-0.0625 0.63672-0.0625 0.51172-0.12891 0.50781-0.125 0.38281-0.19141 0.37891-0.12891 0.19141-0.1875 0.1875h-0.12891l-1.082-0.058594-0.76562-0.066406h-0.82812l-1.1445-0.058594-0.69922-0.066406-0.82812-0.058594-0.95312-0.066406-1.1445-0.058594-0.25391-0.12891-0.25781-0.19141-0.1875-0.25391-0.19141-0.32031-0.12891-0.44531-0.12891-0.50391-0.0625-0.57031zm-20.66-1.2031v-32.727l0.066407-0.57812 0.12891-0.44531 0.1875-0.38281 0.1875-0.3125 0.19141-0.25781 0.1875-0.1875h0.25781l1.1406 0.058594 0.76562 0.066406 0.76172 0.058594 1.0156 0.066406h0.63672l0.82812 0.066407 1.0156 0.12891 1.2734 0.058594 0.1875 0.066406 0.19141 0.1875 0.12891 0.25391 0.19531 0.32031 0.125 0.44531 0.058593 0.44531 0.066407 0.56641 0.0625 0.57422v32.039l-0.0625 0.64062-0.066407 0.56641-0.058593 0.51172-0.125 0.38281-0.19531 0.3125-0.12891 0.25781-0.19141 0.12891-0.1875 0.058593-1.082-0.058593-0.76562-0.058594h-0.76563l-1.1445-0.066406h-0.69922l-0.82812-0.066407-0.94922-0.058593-1.207-0.066407-0.25781-0.066406-0.1875-0.1875-0.19141-0.25391-0.1875-0.32031-0.1875-0.44531-0.12891-0.50781-0.066406-0.57422-0.003906-0.64062zm9.5352 360.35v32.68l-0.058594 0.57422-0.125 0.44141-0.12891 0.44531-0.12891 0.38672-0.12891 0.25391-0.1875 0.1875-0.12891 0.066406-1.082 0.12891-0.76562 0.12891-0.82812 0.058594-1.082 0.12891-0.76563 0.066407-0.82812 0.058593-1.0156 0.13281-1.207 0.058594h-0.19141l-0.1875-0.12891-0.1875-0.25391-0.19141-0.32031-0.12891-0.38281-0.12891-0.44531-0.066406-0.57422v-33.375l0.066406-0.57422 0.12891-0.50781 0.12891-0.44531 0.19141-0.3125 0.1875-0.25391 0.1875-0.19141 0.19141-0.12891 1.1445-0.066407 0.82813-0.058593 0.76562-0.066407 1.082-0.058593 0.57422-0.066407 0.82422-0.058593 1.0156-0.12891 1.3359-0.12891h0.12891l0.1875 0.1875 0.12891 0.19141 0.12891 0.32031 0.12891 0.38281 0.125 0.50781 0.058593 0.57422v0.56641zm20.66-2.2188v32.297l-0.0625 0.57422-0.12891 0.44531-0.12891 0.44141-0.12891 0.32031-0.1875 0.25391-0.1875 0.19141-0.1875 0.12891-1.0156 0.12891-0.76562 0.066406-0.76562 0.12109-1.1445 0.13281-0.69922 0.058594-0.82812 0.13281-0.95312 0.12109-1.1445 0.12891h-0.25391l-0.25781-0.12891-0.1875-0.25391-0.19141-0.25391-0.12891-0.38281-0.12891-0.44531-0.0625-0.50781v-33.125l0.0625-0.57422 0.12891-0.50781 0.12891-0.44531 0.19141-0.38281 0.1875-0.25391 0.25781-0.19141 0.25391-0.066407 1.0156-0.12891 0.82812-0.058594 0.76562-0.12891 1.0156-0.12891 0.63672-0.066407 0.82422-0.058593 0.95312-0.12891 1.2734-0.13281 0.1875 0.066406 0.1875 0.12891 0.1875 0.19141 0.12891 0.3125 0.25781 0.89062 0.0625 0.57422zm20.66 1.6523v27.461l-0.066406 0.57422-0.0625 0.51172-0.0625 0.50781-0.12891 0.38281-0.19141 0.32031-0.12891 0.3125-0.1875 0.12891-0.1875 0.066406-1.082 0.19141-0.76172 0.058593-0.76562 0.12891-1.1406 0.12891-0.69922 0.066406-0.82813 0.12891-0.95312 0.12891-1.2109 0.12891h-0.25391l-0.1875-0.12891-0.1875-0.19141-0.1875-0.3125-0.19141-0.38672-0.12891-0.38281-0.0625-0.50781v-4.5156l0.0625-3.9414v-23.711l0.0625-0.64062 0.0625-0.56641 0.066407-0.51172 0.1875-0.44141 0.12891-0.32031 0.1875-0.32031 0.1875-0.12891 0.25391-0.12891 1.082-0.12891 0.76172-0.058594 0.76562-0.066406 1.082-0.12891 0.63672-0.066407 0.88672-0.12109 1.0195-0.13281 1.207-0.12891 0.1875 0.066406 0.1875 0.12891 0.12891 0.1875 0.19141 0.32031 0.12891 0.44531 0.0625 0.44531 0.0625 0.56641 0.066406 0.64062 0.003907 3.9414zm20.656-2.4141v27.141l-0.0625 0.57422-0.058593 0.51172-0.066407 0.44141-0.125 0.44531-0.19141 0.32031-0.19141 0.25391-0.125 0.1875-0.19141 0.066406-1.082 0.19141-0.76172 0.058593-0.76562 0.12891-1.207 0.19141-0.63672 0.058594-0.82813 0.12891-1.0156 0.13281-1.1445 0.12891h-0.25781l-0.1875-0.12891-0.19141-0.19141-0.1875-0.32031-0.19141-0.38281-0.12891-0.44531-0.0625-0.50781v-4.3867l0.0625-3.875v-23.457l0.066406-0.64062 0.058594-0.57422 0.066406-0.50781 0.12891-0.44531 0.1875-0.3125 0.19141-0.32031 0.1875-0.12891 0.25781-0.12891 1.0156-0.066406 0.82812-0.12891 0.76172-0.058594 1.0156-0.12891 0.69922-0.066406 0.82812-0.12891 1.0156-0.12891 1.2695-0.1875 0.19141 0.058594 0.125 0.12891 0.38281 0.50781 0.125 0.44531 0.066406 0.44531 0.058594 0.57422 0.0625 0.56641 0.003906 3.9609zm20.598-6.6172v15.387l-0.058594 3.8789v11.953l-0.066406 0.51172-0.12891 0.44141-0.12891 0.44531-0.12891 0.32031-0.1875 0.25391-0.1875 0.12891-0.19141 0.12891-1.0156 0.12891-0.69922 0.12891-0.82812 0.12891-1.2109 0.19141-0.63672 0.12891-0.82813 0.12891-0.95312 0.12891-1.2734 0.1875h-0.1875l-0.1875-0.12891-0.25391-0.1875-0.19141-0.32031-0.12891-0.38281-0.12891-0.44531-0.12891-0.50781v-4.3242l0.0625-3.8789v-23.207l0.066406-0.57422 0.058594-0.57422 0.12891-0.50781 0.12891-0.44141 0.1875-0.32031 0.19141-0.25391 0.1875-0.19141 0.1875-0.12891 1.1445-0.12891 0.76562-0.058594 0.76172-0.13281 1.0156-0.058594 0.69922-0.12891 0.82812-0.12891 1.0156-0.12891 1.207-0.19141 0.19141 0.058593 0.25391 0.13281 0.1875 0.25391 0.12891 0.32031 0.12891 0.38281 0.12891 0.44141 0.058593 0.57422 0.011719 0.56641zm20.66-2.7305v11.441l-0.058594 3.8164v15.07l-0.066406 0.56641-0.0625 0.51172-0.066406 0.44531-0.12891 0.38281-0.1875 0.3125-0.1875 0.25391-0.125 0.19141-0.19141 0.066406-1.0156 0.1875-0.76562 0.066407-0.82812 0.12891-1.207 0.1875-0.63672 0.12891-0.76172 0.13281-1.0195 0.12891-1.207 0.1875h-0.25391l-0.19141-0.12891-0.375-0.50781-0.12891-0.38281-0.0625-0.44531-0.0625-0.50781-0.066406-0.51172v-30.457l0.066406-0.64062 0.125-1.0156 0.12891-0.38281 0.1875-0.38672 0.1875-0.25391 0.19141-0.1875 0.25391-0.066406 1.082-0.12891 0.82812-0.12891 0.76172-0.066407 0.95703-0.12891 0.69531-0.12891 0.82812-0.12891 1.0156-0.12891 1.2734-0.12891h0.19141l0.1875 0.12891 0.1875 0.25391 0.12891 0.25391 0.19141 0.38672 0.12891 0.50781 0.058594 0.50781zm20.535-2.8047v15.066l-0.0625 3.7461v11.703l-0.0625 0.44141-0.12891 0.51172-0.066406 0.38281-0.1875 0.32031-0.12891 0.25391-0.1875 0.1875-0.1875 0.066407-1.0156 0.19141-0.76562 0.12891-0.76172 0.12891-1.082 0.1875-0.76562 0.066406-0.82812 0.12891-1.0117 0.1875-1.1445 0.19141-0.25391-0.058594-0.1875-0.066406-0.38281-0.50781-0.12891-0.38281-0.12891-0.38672-0.0625-0.50781v-31.219l0.0625-0.50781 0.12891-0.51172 0.12891-0.38281 0.19141-0.38281 0.19141-0.25391 0.1875-0.19141 0.25391-0.058593 1.082-0.19141 0.82813-0.058593 0.76172-0.066407 1.082-0.12891 0.57031-0.12891 0.82812-0.12891 1.0156-0.12891 1.2109-0.19141 0.1875 0.066406 0.1875 0.058594 0.1875 0.25391 0.12891 0.25391 0.12891 0.38672 0.12891 0.44141 0.0625 0.51172zm20.66-2.918v11.121l-0.0625 3.6875v14.621l-0.0625 0.57422-0.0625 0.50781-0.0625 0.44531-0.12891 0.38281-0.12891 0.32031-0.12891 0.25391-0.1875 0.1875-0.19141 0.066406-1.0156 0.19141-0.76562 0.058593-0.82812 0.12891-1.1445 0.25391-0.69531 0.066406-0.76562 0.12891-1.0117 0.19141-1.2109 0.25391-0.25391-0.066407-0.1875-0.058593-0.25-0.25781-0.12891-0.25391-0.1875-0.38281-0.0625-0.38281-0.0625-0.50781-0.0625-0.51172 0.0625-3.6875v-7.3711l0.0625-3.6875v-15.449l0.0625-0.57422 0.0625-0.44531 0.12891-0.44141 0.19141-0.32031 0.1875-0.25391 0.1875-0.19141 0.25391-0.12891 1.1445-0.12891 0.76172-0.066406 0.76562-0.12891 1.0156-0.1875 0.69531-0.066406 0.82812-0.12891 1.0156-0.12891 1.207-0.1875 0.19141 0.058594 0.1875 0.066406 0.1875 0.25391 0.12891 0.25391 0.12891 0.38281 0.12891 0.44531 0.0625 0.50781 0.003906 0.58594zm4.0664-20.406-8.8359 1.1406-20.531 2.7344-20.785 2.4141-20.598 2.418-20.598 2.4141-20.594 2.0938-20.598 2.1016-18.688 1.9062-0.003906-317.11 18.688 1.0117 20.598 1.207 20.594 1.2734 20.598 1.3359 20.598 1.4688 20.785 1.3945 20.531 1.5273 8.8359 0.69922zm151.36-295.06v-26.496l0.0625-0.44531 0.12891-0.32031 0.12891-0.3125 0.1875-0.25781 0.1875-0.1875 0.25781-0.12891h0.25391l1.082 0.12891 0.76172 0.12891 0.69922 0.058593 1.0195 0.19141 0.76172 0.066406 0.82812 0.125 1.0156 0.12891 1.2695 0.12891 0.19141 0.058594 0.1875 0.19141 0.12891 0.19141 0.12891 0.25391 0.12891 0.38281 0.058594 0.38281 0.0625 0.38281v26.754l-0.0625 0.44531-0.058594 0.44531-0.12891 0.3125-0.12891 0.25391-0.12891 0.19141-0.1875 0.12891h-0.19141l-1.082-0.12891-0.76172-0.058594-0.82812-0.066406-1.207-0.066406-0.63672-0.058594-0.76562-0.12891-1.0156-0.12891-1.1445-0.066407-0.25391-0.058593-0.25781-0.19141-0.1875-0.1875-0.1875-0.32031-0.12891-0.37891-0.12891-0.38672-0.0625-0.44141v-0.51563zm-20.664-5.4023v-23.207l0.058594-0.44531 0.066406-0.44141 0.0625-0.38672 0.1875-0.3125 0.12891-0.25391 0.25391-0.19141 0.19141-0.066407 0.25391-0.058593 1.082 0.12891 0.76172 0.12891 0.76562 0.12891 1.0781 0.12891 0.63672 0.066407 0.82812 0.12891 1.0156 0.12891 1.2695 0.25h0.19141l0.1875 0.12891 0.1875 0.25391 0.12891 0.25391 0.12891 0.38672 0.12891 0.38281 0.0625 0.44141v27.273l-0.0625 0.44531-0.12891 0.38281-0.12891 0.32031-0.12891 0.25391-0.1875 0.25391-0.1875 0.13281-0.19141 0.058593-1.0156-0.19141-0.76562-0.12891-0.82422-0.058594-1.1445-0.066406-0.69531-0.12891-0.89062-0.058593-0.95312-0.066407-1.1445-0.1875-0.25391-0.066406-0.19141-0.12891-0.25391-0.25391-0.12891-0.25391-0.1875-0.38281-0.0625-0.44531-0.066407-0.44531-0.058593-0.50781v-3.3242zm-20.66-2.1641v-23.578l0.0625-0.51172 0.066406-0.44141 0.12891-0.38672 0.12891-0.25391 0.1875-0.25 0.25391-0.1875 0.1875-0.13281h0.25391l1.0781 0.13281 0.82812 0.058594 0.69922 0.12891 1.0156 0.19141 0.63672 0.058593 0.82812 0.066407 1.082 0.12891 1.207 0.12891 0.1875 0.12891 0.19531 0.12891 0.1875 0.19141 0.12891 0.3125 0.12891 0.32031 0.12891 0.44531 0.0625 0.38281v27.777l-0.0625 0.51172-0.25781 0.76562-0.12891 0.25391-0.1875 0.19531-0.19531 0.125h-0.1875l-1.0156-0.125-0.76562-0.066406-0.82812-0.058594-1.1445-0.066406-0.69531-0.058594-0.82813-0.12891-0.95703-0.12891-1.1445-0.13281-0.25391-0.058594-0.1875-0.12891-0.25391-0.19141-0.1875-0.32031-0.12891-0.38281-0.12891-0.44141-0.066406-0.51172-0.0625-0.56641zm-20.598 1.3359v-27.906l0.0625-0.44531 0.12891-0.38281 0.1875-0.32031 0.1875-0.25391 0.19141-0.19141 0.1875-0.058594h0.25391l1.082 0.058594 0.82812 0.12891 0.76562 0.066406 0.95312 0.12891 0.69922 0.0625 0.82422 0.125 1.0195 0.13281 1.2695 0.12891 0.1875 0.058594 0.1875 0.19141 0.1875 0.1875 0.12891 0.32031 0.19141 0.38281 0.12891 0.37891 0.0625 0.44922v28.223l-0.0625 0.51172-0.12891 0.38281-0.19141 0.38281-0.12891 0.25391-0.1875 0.19141-0.1875 0.12891h-0.1875l-1.082-0.066406-0.76172-0.058594-0.76562-0.066406-1.207-0.12891-0.63672-0.058594-0.82422-0.066406-1.0195-0.12891-1.1445-0.066406-0.25391-0.058594-0.1875-0.19141-0.19141-0.25-0.1875-0.32031-0.1875-0.38281-0.12891-0.44141-0.0625-0.44531zm-20.594-5.5273v-24.344l0.0625-0.50781 0.066406-0.44531 0.125-0.38281 0.12891-0.38281 0.19141-0.25781 0.1875-0.1875 0.19141-0.12891h0.1875l1.1445 0.1875 0.76562 0.066407 0.76172 0.12891 1.0195 0.12891 0.63672 0.066406 0.82812 0.058594 1.0195 0.12891 1.2695 0.12891 0.1875 0.12891 0.25391 0.12891 0.19141 0.25781 0.125 0.3125 0.12891 0.32031 0.12891 0.44531 0.0625 0.44141v28.738l-0.0625 0.44141-0.12891 0.44531-0.12891 0.38281-0.125 0.25781-0.19141 0.1875-0.25391 0.12891-0.1875 0.066406-1.0156-0.12891-0.69922-0.066406-0.82812-0.058594-1.207-0.12891-0.69922-0.066406-0.82422-0.12891-0.95312-0.066406-1.207-0.12891-0.1875-0.058594-0.19141-0.12891-0.1875-0.25391-0.19141-0.32031-0.12891-0.38281-0.125-0.44531-0.066406-0.50781-0.0625-0.57422zm-20.598 1.457v-28.801l0.058594-0.44531 0.12891-0.44141 0.19141-0.32031 0.19141-0.25391 0.1875-0.19141 0.19141-0.058594 0.25391-0.066406 1.0156 0.125 0.76563 0.066406 0.76172 0.12891 1.0195 0.12891 0.69922 0.058594 0.82422 0.12891 1.082 0.12891 1.2695 0.13281 0.1875 0.058594 0.12891 0.19141 0.375 0.50781 0.12891 0.38281 0.125 0.89062 0.0625 0.50781v28.156l-0.0625 0.51172-0.0625 0.50781-0.0625 0.44531-0.12891 0.38281-0.1875 0.25391-0.1875 0.19141-0.12891 0.12891h-0.1875l-1.1445-0.066406-0.76172-0.058594-0.76563-0.12891-1.207-0.066406-0.63672-0.058594-0.76562-0.066406-1.0156-0.12891-1.1445-0.066406-0.25391-0.058594-0.19141-0.19141-0.1875-0.25391-0.19141-0.32031-0.19141-0.38281-0.12891-0.50781-0.058594-0.50781v-0.57422zm-20.66-1.9062v-29.312l0.0625-0.44531 0.125-0.38281 0.19141-0.38281 0.1875-0.25781 0.1875-0.1875 0.19141-0.12891 0.25391-0.066406 1.082 0.19141 0.76172 0.058594 0.69922 0.066406 1.0156 0.12891 0.76562 0.058594 0.82812 0.13281 1.0156 0.12891 1.2695 0.12891 0.19141 0.0625 0.1875 0.19141 0.12891 0.1875 0.1875 0.32031 0.12891 0.38281 0.066406 0.44922 0.058594 0.50391 0.066406 0.51172v28.609l-0.066406 0.57422-0.058594 0.44141-0.066406 0.44531-0.12891 0.38281-0.1875 0.25391-0.12891 0.25781-0.1875 0.12891h-0.19141l-1.082-0.066406-0.76172-0.058594-0.82812-0.12891-1.2109-0.066407-0.63672-0.066406-0.76562-0.058594-0.95312-0.12891-1.207-0.12891-0.25391-0.066406-0.19141-0.12891-0.1875-0.25391-0.1875-0.32031-0.19141-0.38281-0.125-0.50391-0.0625-0.50781 0.003906-0.56641zm-20.531-1.9062v-29.688l0.066406-0.51172 0.125-0.38281 0.12891-0.38281 0.12891-0.25391 0.1875-0.19141 0.25391-0.12891 0.19141-0.058594 1.1445 0.12109 0.76172 0.13281 0.76562 0.058594 1.0195 0.12891 0.63672 0.066407 0.82813 0.12891 1.0117 0.12891 1.2734 0.12891 0.19141 0.0625 0.1875 0.19141 0.19141 0.19141 0.12891 0.3125 0.12891 0.38672 0.12891 0.44141 0.066406 0.51172v30.066l-0.066406 0.50781-0.12891 0.44531-0.12891 0.38281-0.12891 0.32031-0.19141 0.19141-0.1875 0.12891-0.19141 0.058594-1.0156-0.12891-0.76562-0.058594-0.82422-0.066406-1.1445-0.12891h-0.69922l-0.82812-0.125-1.0156-0.066406-1.1445-0.12891-0.19141-0.058594-0.25391-0.12891-0.1875-0.25391-0.12891-0.38672-0.12891-0.38281-0.125-0.44531-0.066407-0.56641zm9.5391 326.59v29.559l-0.066407 0.44531-0.12891 0.44531-0.12891 0.44141-0.12891 0.32031-0.19141 0.25391-0.1875 0.19141-0.19141 0.058594-1.082 0.19141-0.76562 0.12891-0.76172 0.12891-1.1445 0.19141-0.69922 0.12891-0.82812 0.12891-1.0156 0.12891-1.1445 0.1875h-0.19141l-0.25391-0.058594-0.1875-0.19141-0.19141-0.25391-0.125-0.38281-0.12891-0.38281-0.125-0.51172v-0.50781l0.058594-3.6211v-10.934l0.0625-3.6875v-11.566l0.066406-0.57422 0.125-0.44531 0.25781-0.76562 0.1875-0.25391 0.25391-0.13281 0.19141-0.12109 1.082-0.13281 0.76172-0.12891 0.76562-0.058594 1.082-0.12891 0.63672-0.12891 0.82812-0.12891 1.0117-0.13281 1.2734-0.25391 0.19141 0.066406 0.1875 0.12891 0.19141 0.19141 0.12891 0.3125 0.12891 0.32031 0.12891 0.44531 0.066407 0.50781-0.007813 0.58203zm20.656 0.63281v3.625l-0.066407 3.5625v7.1172l-0.058593 3.5625v7.6328l-0.066407 0.44531-0.0625 0.44531-0.125 0.38281-0.19141 0.3125-0.12891 0.25781-0.1875 0.1875-0.25781 0.066406-1.0156 0.1875-0.76562 0.13281-0.76172 0.12109-1.2109 0.25781-0.63672 0.058593-0.76562 0.12891-1.0156 0.19141-1.2695 0.1875h-0.19141l-0.1875-0.12109-0.19141-0.19141-0.12891-0.25391-0.19141-0.32031-0.125-0.44531-0.0625-0.44531v-29.816l0.0625-0.57422 0.125-0.44141 0.19141-0.38672 0.12891-0.38281 0.19141-0.25391 0.1875-0.12891 0.19141-0.12891 1.1445-0.12891 0.76172-0.12891 0.76172-0.066407 1.0156-0.12891 0.69922-0.12891 0.89062-0.12891 0.95312-0.19141 1.207-0.1875 0.25781 0.058594 0.1875 0.066406 0.1875 0.19141 0.1875 0.3125 0.12891 0.38281 0.066406 0.44531 0.058594 0.50781 0.066406 0.57422zm20.66-3.1797-0.0625 3.5v10.617l-0.0625 3.4922v7.5l-0.0625 0.44531-0.12891 0.44531-0.12891 0.38281-0.12891 0.25391-0.1875 0.25391-0.1875 0.19141-0.19141 0.058593-1.0156 0.19141-0.76172 0.12891-0.82812 0.19141-1.1445 0.1875-0.63672 0.066406-0.82422 0.1875-1.0195 0.19141-1.207 0.12891-0.1875 0.066406-0.25391-0.12891-0.19141-0.19141-0.1875-0.25391-0.12891-0.32031-0.12891-0.38281-0.12891-0.44531v-0.50781l0.0625-3.4922v-10.625l0.0625-3.4922v-11.254l0.058593-0.57422 0.12891-0.44531 0.12891-0.38281 0.12891-0.32031 0.19141-0.32031 0.25391-0.1875 0.1875-0.066406 1.1445-0.1875 0.76562-0.066406 0.76172-0.12891 1.0195-0.19141 0.63672-0.058593 0.82812-0.12891 1.0156-0.12891 1.2695-0.25391 0.19141 0.058593 0.1875 0.12891 0.1875 0.19141 0.1875 0.25391 0.25781 0.76562 0.0625 0.51172 0.0625 0.56641v3.5781zm20.535-3.1758v3.4922l-0.0625 3.4336v6.9258l-0.066406 3.4336v7.375l-0.066406 0.44531-0.0625 0.44141-0.125 0.32031-0.12891 0.32031-0.1875 0.25391-0.12891 0.19141-0.1875 0.058593-1.082 0.19141-0.76172 0.12891-0.76562 0.12891-1.1445 0.1875-0.69922 0.12891-0.82422 0.13281-0.95312 0.1875-1.207 0.19141h-0.25391l-0.1875-0.066406-0.19141-0.19141-0.1875-0.25391-0.1875-0.3125-0.12891-0.38672-0.0625-0.44141v-3.9414l0.0625-3.5v-20.977l0.0625-0.50781 0.066406-0.51172 0.0625-0.44141 0.1875-0.38281 0.12891-0.38672 0.19141-0.1875 0.1875-0.19141 0.25391-0.12891 1.1445-0.12891 0.76562-0.12891 0.76172-0.12891 1.0195-0.12891 0.63672-0.12891 0.82812-0.12891 1.0195-0.12891 1.2695-0.12891h0.1875l0.19141 0.058594 0.125 0.19141 0.1875 0.3125 0.12891 0.32031 0.13281 0.89062 0.0625 0.56641zm20.656-3.1797-0.0625 3.4336v10.168l-0.0625 3.3711v7.2461l-0.066406 0.44141-0.12891 0.44531-0.12891 0.38281-0.12891 0.25391-0.12891 0.25781-0.1875 0.1875-0.12891 0.066406-1.082 0.12891-0.76172 0.12891-0.76562 0.1875-1.207 0.19141-0.63672 0.12891-0.82422 0.19141-1.0195 0.12891-1.1445 0.25391h-0.25391l-0.25-0.12891-0.19531-0.19141-0.1875-0.25391-0.125-0.32031-0.12891-0.38281-0.0625-0.44531v-28.41l0.0625-0.51172 0.12891-0.44141 0.125-0.38281 0.1875-0.32031 0.19531-0.25391 0.25-0.19141 0.25391-0.066406 1.082-0.1875 0.76562-0.12891 0.76172-0.066406 1.0156-0.1875 0.69922-0.066406 0.82422-0.12891 1.0195-0.1875 1.2695-0.19141 0.12891 0.066406 0.1875 0.12891 0.12891 0.12891 0.19531 0.3125 0.125 0.32031 0.12891 0.38281 0.0625 0.50781 0.0625 0.51172 0.003906 3.4922zm20.531-3.2422v23.332l-0.0625 0.44531-0.0625 0.44141-0.066406 0.44531-0.125 0.32031-0.12891 0.3125-0.1875 0.25781-0.12891 0.12891-0.1875 0.058594-1.0156 0.25391-0.76563 0.13281-0.82812 0.12109-1.1445 0.19141-0.69531 0.12891-0.82812 0.12891-1.0195 0.19141-1.0781 0.1875h-0.25391l-0.25391-0.058594-0.1875-0.19141-0.1875-0.25391-0.12891-0.32031-0.12891-0.38281-0.066407-0.44141-0.0625-0.44531v-26.953l0.0625-0.50781 0.066407-0.50781 0.12891-0.44531 0.12891-0.38281 0.1875-0.32031 0.1875-0.25391 0.25391-0.19141 0.25391-0.058594 1.0195-0.12891 0.76172-0.12891 0.82813-0.12891 1.0156-0.12891 0.63672-0.12891 0.82812-0.12891 1.082-0.13281 1.207-0.25391 0.1875 0.066406 0.12891 0.12891 0.1875 0.19141 0.12891 0.25391 0.125 0.3125 0.066407 0.44531 0.0625 0.44531 0.0625 0.50781 0.003906 3.4453zm20.664-3.2383v22.941l-0.0625 0.44531-0.066406 0.44531-0.0625 0.38281-0.25781 0.64063-0.1875 0.25391-0.1875 0.12891-0.19141 0.058594-1.082 0.19141-0.69922 0.12891-0.76172 0.12891-1.1445 0.19141-0.76562 0.1875-0.82422 0.12891-1.0195 0.19141-1.1445 0.19141h-0.25391l-0.19141-0.066407-0.1875-0.19141-0.19141-0.1875-0.125-0.32031-0.0625-0.38281-0.066406-0.44531-0.058594-0.44531v-26.512l0.058594-0.57422 0.066406-0.44531 0.0625-0.44531 0.125-0.38281 0.19141-0.3125 0.1875-0.19141 0.19141-0.19141 0.25391-0.058594 1.0781-0.19141 0.82812-0.12891 0.76563-0.12891 1.0781-0.12891 0.63672-0.12891 0.82812-0.12891 1.0156-0.12891 1.207-0.19141 0.19141 0.066406 0.1875 0.058594 0.1875 0.19141 0.12891 0.25391 0.12891 0.32031 0.0625 0.44141 0.066407 0.44531 0.0625 0.50781v3.3867zm20.594-6.5508v26.238l-0.0625 0.38281-0.12891 0.44531-0.125 0.32031-0.12891 0.32031-0.1875 0.1875-0.1875 0.19141-0.19141 0.058594-1.0117 0.19141-0.76562 0.12891-0.82812 0.12891-1.1406 0.1875-0.63672 0.13281-0.82812 0.12891-1.0156 0.1875-1.1445 0.25391h-0.25391l-0.19141-0.12891-0.25391-0.12891-0.1875-0.25391-0.12891-0.32031-0.12891-0.3125-0.125-0.89062 0.0625-3.2383v-3.2383l0.0625-3.2461v-16.836l0.0625-0.44531 0.12891-0.44141 0.12891-0.38672 0.375-0.50781 0.19141-0.1875 0.25391-0.066406 1.0195-0.12891 0.76172-0.12891 0.82422-0.12891 1.0195-0.12891 0.69531-0.12891 0.82812-0.12891 1.0117-0.19141 1.207-0.19141 0.19141 0.066406 0.1875 0.058594 0.1875 0.19141 0.12891 0.25391 0.125 0.38672 0.12891 0.38281 0.0625 0.44141zm4.0703-17.996-8.8359 1.2148-20.535 2.8633-20.66 2.9219-20.66 2.8008-20.598 2.8633-41.32 5.7266-18.625 2.4141 0.003907-287.19 18.625 1.4609 20.66 1.5898 20.66 1.7148 20.598 1.7148 41.32 3.5625 20.535 1.7188 8.8359 0.76172zm151.29-256.4v-22.828l0.0625-0.38281 0.12891-0.32031 0.19141-0.25391 0.1875-0.1875 0.1875-0.19141 0.1875-0.058594h0.25781l1.082 0.125 0.82812 0.12891 0.76172 0.058594 0.95703 0.12891 0.63281 0.066406 0.82812 0.12891 1.082 0.058594 1.2695 0.13281 0.1875 0.058593 0.12891 0.12891 0.1875 0.19141 0.19141 0.25391 0.12891 0.3125 0.0625 0.32031 0.0625 0.38281 0.0625 0.38672v22.242l-0.0625 0.38672-0.0625 0.44141-0.0625 0.32031-0.12891 0.25391-0.19141 0.25391-0.1875 0.12891-0.12891 0.13281h-0.1875l-1.082-0.13281-0.76562-0.058594-0.76562-0.066406-1.207-0.058594-0.63672-0.066406-0.82812-0.058594-1.0195-0.12891-1.1406-0.066407-0.25781-0.058593-0.1875-0.12891-0.1875-0.19141-0.1875-0.25391-0.19141-0.32031-0.12891-0.37891-0.0625-0.38281zm-20.66-1.9102v-23.219l0.0625-0.38281 0.12891-0.32031 0.19141-0.25391 0.1875-0.25391 0.19141-0.12891 0.1875-0.066406h0.25391l1.1445 0.12891 0.76562 0.066406 0.76172 0.058594 1.0156 0.13281 0.63672 0.058594 0.82422 0.12891 1.0156 0.12891 1.2734 0.12891 0.1875 0.066406 0.1875 0.12891 0.1875 0.1875 0.19141 0.25781 0.12891 0.25391 0.12891 0.38281 0.0625 0.38281v23.469l-0.0625 0.38281-0.12891 0.38281-0.12891 0.25781-0.19141 0.25391-0.1875 0.12891-0.1875 0.125h-0.1875l-1.0156-0.066406-0.76562-0.058594-0.82812-0.066406-1.1445-0.12891-0.69922-0.058594-0.82422-0.066406-0.95312-0.058594-1.2109-0.12891-0.25391-0.066407-0.1875-0.12891-0.19141-0.19141-0.1875-0.3125-0.19141-0.32031-0.12891-0.32031-0.0625-0.44141zm-20.531-2.0312v-23.656l0.0625-0.38281 0.12891-0.32031 0.1875-0.25391 0.1875-0.1875 0.19141-0.12891 0.1875-0.13281h0.25391l1.0156 0.13281 0.76563 0.058594 0.76562 0.12891 1.0156 0.066406 0.63672 0.12891 0.82812 0.058593 1.0156 0.19141 1.2734 0.12891 0.25391 0.058594 0.1875 0.13281 0.1875 0.1875 0.12891 0.25391 0.19141 0.32031 0.058594 0.38281 0.066406 0.38281 0.0625 0.38672v23.082l-0.0625 0.44531-0.066406 0.38281-0.058594 0.38281-0.19141 0.25781-0.12891 0.25391-0.375 0.25781h-0.25391l-1.0156-0.12891-0.69922-0.066407-0.82812-0.058593-1.207-0.12891-0.69922-0.066406-0.76562-0.058594-0.95312-0.066406-1.1445-0.12891-0.25391-0.066407-0.1875-0.12891-0.19141-0.1875-0.1875-0.25391-0.1875-0.38672-0.12891-0.3125-0.0625-0.44531zm-20.664-1.9062v-24.16l0.066406-0.38281 0.12891-0.32031 0.1875-0.3125 0.375-0.38281 0.19141-0.058594 0.25391-0.066406 1.082 0.19141 0.76563 0.058594 0.69922 0.12891 1.0156 0.066406 0.76172 0.12891 0.82812 0.12891 1.0156 0.12891 1.2734 0.12891 0.1875 0.066406 0.19141 0.12891 0.12891 0.1875 0.19141 0.25391 0.125 0.32031 0.066406 0.32031 0.0625 0.38281 0.058594 0.44531v23.461l-0.058594 0.50781-0.0625 0.38281-0.066406 0.38672-0.125 0.3125-0.19141 0.25391-0.12891 0.19141-0.19141 0.058594h-0.1875l-1.082-0.058594-0.76562-0.066406-0.82422-0.0625-1.207-0.19141h-0.63672l-0.76562-0.058594-0.95313-0.13281-1.207-0.12109-0.25391-0.066407-0.19141-0.12891-0.1875-0.19141-0.1875-0.25391-0.1875-0.32031-0.12891-0.38281-0.066406-0.44531zm-20.527-2.0352v-24.543l0.0625-0.38672 0.12891-0.38281 0.12891-0.25391 0.125-0.25391 0.1875-0.12891 0.25781-0.12891h0.1875l1.1445 0.12891 0.76172 0.066406 0.82812 0.12891 1.0195 0.12109 0.63672 0.066406 0.82813 0.12891 1.0156 0.12891 1.3359 0.19141h0.12891l0.19141 0.12891 0.12891 0.25391 0.1875 0.25391 0.12891 0.25391 0.12891 0.38281 0.0625 0.38672 0.0625 0.44141v23.98l-0.0625 0.44141-0.0625 0.44531-0.12891 0.38281-0.12891 0.25391-0.1875 0.25781-0.12891 0.1875-0.19141 0.12891-0.12891 0.066406-1.082-0.12891-0.76562-0.12891-0.76172-0.066406-1.207-0.12891-0.69922-0.058594-0.82812-0.066406-1.0156-0.066407-1.207-0.12109-0.1875-0.066407-0.25781-0.12891-0.1875-0.25391-0.125-0.25-0.12891-0.32031-0.12891-0.38281-0.0625-0.44531-0.007813-0.51562zm-20.66-2.1016v-25.055l0.066406-0.38672 0.12891-0.3125 0.1875-0.32031 0.1875-0.19141 0.1875-0.1875 0.1875-0.066406 0.25391-0.058594 1.1445 0.19141 0.76172 0.058594 0.76562 0.12891 1.0156 0.066406 0.63672 0.12891 0.82812 0.058593 1.0156 0.19141 1.2695 0.12891 0.1875 0.066406 0.19141 0.12109 0.12891 0.19141 0.1875 0.32031 0.12891 0.3125 0.0625 0.38672 0.0625 0.38281 0.0625 0.44531v24.348l-0.0625 0.50781-0.0625 0.44531-0.0625 0.38281-0.12891 0.32031-0.1875 0.25391-0.12891 0.12891-0.19141 0.12891h-0.1875l-1.082-0.058593-0.76562-0.066407-0.76562-0.12891-1.1445-0.12891-0.69922-0.066406-0.82812-0.058594-0.95312-0.058594-1.207-0.13281-0.25391-0.058594-0.1875-0.125-0.375-0.50781-0.1875-0.38672-0.12891-0.38281-0.066406-0.44531 0.003906-0.51172zm-20.664-2.0352v-25.508l0.12891-0.44531 0.125-0.38281 0.12891-0.25391 0.19141-0.25391 0.1875-0.19141 0.25391-0.0625h0.1875l1.082 0.12891 0.82812 0.12891 0.76562 0.058594 1.0156 0.066406 0.63672 0.12891 0.82812 0.12891 1.0156 0.12891 1.2695 0.12891 0.1875 0.058594 0.19141 0.19141 0.1875 0.19141 0.19141 0.25391 0.12891 0.3125 0.12891 0.38672 0.0625 0.44531 0.0625 0.44141v24.863l-0.0625 0.50781-0.0625 0.44922-0.12891 0.37891-0.12891 0.32031-0.19141 0.25391-0.1875 0.12891-0.19141 0.12891h-0.1875l-1.0156-0.058594-0.76562-0.066406-0.82812-0.12891-1.1445-0.125-0.69922-0.066406-0.82812-0.058594-0.95312-0.066406-1.207-0.1875h-0.1875l-0.25391-0.19141-0.1875-0.1875-0.19141-0.25781-0.12891-0.38281-0.125-0.38281-0.12891-0.44531zm-20.531-2.0938v-25.996l0.0625-0.44531 0.12891-0.31641 0.12891-0.32031 0.1875-0.25391 0.19141-0.19141 0.1875-0.058593h0.1875l1.1445 0.12891 1.5312 0.25781 1.0156 0.12891 0.69922 0.066407 0.82812 0.058593 1.0117 0.12891 1.2109 0.12891 0.25391 0.12891 0.1875 0.12891 0.12891 0.19141 0.19141 0.3125 0.12891 0.32422 0.058594 0.375 0.066406 0.44531v26.258l-0.066406 0.44531-0.058594 0.38281-0.12891 0.3125-0.19141 0.25391-0.12891 0.19141-0.1875 0.12891h-0.25391l-1.0156-0.12891-0.76562-0.058594-0.76172-0.066406-1.207-0.12891-0.69922-0.066407-0.76562-0.058593-1.0156-0.066407-1.207-0.125-0.1875-0.0625-0.1875-0.19141-0.19141-0.19141-0.1875-0.3125-0.12891-0.32031-0.12891-0.44141-0.0625-0.44531zm9.5391 285.33v25.746l-0.066406 0.44531-0.12891 0.38281-0.12891 0.32031-0.12891 0.3125-0.1875 0.25781-0.19141 0.12891-0.1875 0.058594-1.0156 0.19141-0.76562 0.12891-0.82422 0.12891-1.1445 0.1875-0.69922 0.13281-0.76562 0.1875-1.0156 0.12891-1.207 0.25391h-0.1875l-0.25781-0.058594-0.1875-0.19141-0.1875-0.25391-0.12891-0.25391-0.12891-0.38281-0.0625-0.38281-0.0625-0.44531 0.0625-3.2461v-6.3555l0.0625-3.1758v-13.348l0.0625-0.44141 0.12891-0.44531 0.12891-0.32031 0.1875-0.3125 0.19141-0.19141 0.1875-0.19141 0.1875-0.058594 1.082-0.12891 0.82812-0.12891 0.76562-0.12891 1.0156-0.19141 0.69922-0.12891 0.82812-0.058594 1.0117-0.19141 1.2109-0.19141 0.1875 0.066407 0.19141 0.058593 0.1875 0.19141 0.12891 0.25391 0.12891 0.32031 0.12891 0.38281 0.066406 0.44531zm20.656-3.1797v6.2344l-0.0625 3.1172v9.3516l-0.0625 3.0547v3.5625l-0.125 0.76562-0.12891 0.38281-0.12891 0.25391-0.19141 0.19141-0.1875 0.19141-0.25391 0.058594-0.95312 0.19141-0.76562 0.12891-0.76562 0.19141-1.1445 0.1875-0.69922 0.12891-0.82812 0.12891-1.0156 0.19141-1.207 0.1875h-0.1875l-0.25781-0.12891-0.12891-0.12891-0.19141-0.1875-0.1875-0.32031-0.058594-0.32031-0.12891-0.38281v-26.078l0.12891-0.44141 0.058594-0.44531 0.1875-0.32031 0.19141-0.32031 0.12891-0.1875 0.25781-0.19141 0.1875-0.058594 1.082-0.19141 0.82812-0.12891 0.76562-0.066406 1.082-0.1875 0.63672-0.066406 0.82812-0.12891 1.0156-0.1875 1.1445-0.19141h0.25391l0.1875 0.12891 0.19141 0.12891 0.1875 0.25391 0.12891 0.32031 0.12891 0.38281 0.0625 0.44531v0.5zm20.531-3.1836v24.859l-0.0625 0.44531-0.12891 0.32031-0.12891 0.38281-0.12891 0.25391-0.19141 0.25391-0.1875 0.12891-0.1875 0.066406-1.0156 0.1875-0.69922 0.12891-0.82813 0.12891-1.082 0.19141-0.76172 0.12891-0.82812 0.19141-1.0195 0.1875-1.207 0.25391-0.1875-0.058594-0.1875-0.12891-0.19141-0.12891-0.1875-0.25391-0.12891-0.25781-0.12891-0.38281-0.066406-0.38281v-25.559l0.066406-0.44141 0.12891-0.38672 0.12891-0.3125 0.1875-0.32031 0.19141-0.1875 0.1875-0.13281 0.1875-0.058594 1.1445-0.19141 0.82812-0.12109 0.76172-0.13281 1.082-0.1875 0.57422-0.12891 0.82812-0.066407 1.0156-0.1875 1.207-0.13281h0.1875l0.1875 0.066406 0.19141 0.1875 0.12891 0.19141 0.12891 0.32031 0.12891 0.38281 0.0625 0.44531zm20.664-3.0469v24.355l-0.0625 0.44531-0.12891 0.38281-0.12891 0.32031-0.12891 0.25391-0.1875 0.19141-0.19531 0.1875-0.1875 0.066407-1.0156 0.1875-0.76172 0.12891-0.76562 0.13281-1.1406 0.1875-0.69922 0.12891-0.82812 0.12891-1.0156 0.19141-1.207 0.19141h-0.1875l-0.25781-0.066406-0.1875-0.19141-0.125-0.1875-0.25781-0.64062-0.0625-0.38281v-25.051l0.0625-0.44531 0.25781-0.76562 0.125-0.25781 0.1875-0.25391 0.25781-0.12891 0.1875-0.058594 1.1445-0.12891 0.76172-0.12891 0.82812-0.12891 1.0195-0.12891 0.63672-0.13281 0.82812-0.12891 0.95312-0.12891 1.2695-0.1875h0.1875l0.19531 0.12891 0.1875 0.12891 0.12891 0.25391 0.12891 0.32031 0.12891 0.3125 0.0625 0.44531zm20.656 0v2.9219l-0.058594 2.9258v5.9141l-0.0625 2.9219v6.2305l-0.066406 0.38672-0.125 0.38281-0.12891 0.32031-0.12891 0.25391-0.37891 0.37891-0.1875 0.066407-1.0195 0.1875-0.76172 0.12891-0.82812 0.12891-1.1445 0.19141-0.63672 0.12891-0.76562 0.12891-1.0156 0.1875-1.2695 0.19141h-0.19141l-0.25391-0.12891-0.1875-0.12891-0.1875-0.19141-0.12891-0.3125-0.12891-0.32031-0.125-0.76562 0.0625-2.9883v-5.8516l0.0625-2.9883v-12.336l0.066406-0.44531 0.12891-0.38281 0.12891-0.38672 0.1875-0.25391 0.1875-0.1875 0.1875-0.19141 0.19141-0.058593 1.1445-0.19141 0.76562-0.058593 0.76562-0.13281 1.0156-0.12891 0.69531-0.12891 0.89063-0.12891 0.95312-0.12891 1.2109-0.1875h0.1875l0.19141 0.12891 0.1875 0.12891 0.1875 0.25391 0.12891 0.25391 0.12891 0.38281 0.0625 0.38281 0.058593 0.51172v2.9844zm20.535-6.0391v23.473l-0.058594 0.38281-0.12891 0.38672-0.125 0.3125-0.13281 0.25391-0.1875 0.19141-0.1875 0.12891-0.1875 0.066406-1.0156 0.1875-0.76563 0.12891-0.82812 0.19141-1.1445 0.12891-0.69922 0.12891-0.82813 0.19141-0.95312 0.12891-1.207 0.1875h-0.1875l-0.25-0.058593-0.19531-0.12891-0.1875-0.19141-0.12891-0.32031-0.12891-0.3125-0.12891-0.32031v-0.44531l0.066406-2.8633v-8.7109l0.0625-2.8633v-9.2812l0.0625-0.38281 0.12891-0.38281 0.12891-0.38672 0.12891-0.25391 0.19531-0.1875 0.25-0.19141 0.1875-0.058593 1.1445-0.13281 1.5312-0.25781 1.0156-0.12891 0.63672-0.12891 0.82812-0.12891 1.0156-0.12891 1.2734-0.19141h0.1875l0.1875 0.13281 0.1875 0.12891 0.13281 0.25391 0.125 0.25391 0.12891 0.38281 0.058594 0.38281-0.011719 0.43359zm20.66 0v2.8633l-0.0625 2.8008v5.6562l-0.0625 2.8633v6.0391l-0.0625 0.38281-0.0625 0.32031-0.12891 0.32031-0.12891 0.25391-0.31641 0.31641-0.1875 0.066406-1.082 0.1875-0.76562 0.13281-0.76562 0.12891-1.1445 0.12891-0.69922 0.12891-0.82422 0.12891-0.95312 0.12891-1.2109 0.25391h-0.25391l-0.1875-0.12891-0.19141-0.12891-0.1875-0.19141-0.19141-0.25391-0.12891-0.32031-0.0625-0.38281v-23.664l0.0625-0.44141 0.12891-0.38281 0.19141-0.32031 0.1875-0.25391 0.37891-0.37891 0.25391-0.066407 1.1445-0.12891 0.76562-0.12891 0.76172-0.12891 1.0156-0.066406 0.63672-0.12891 0.82422-0.058594 1.0156-0.19141 1.2734-0.12891h0.1875l0.1875 0.066406 0.12891 0.1875 0.19141 0.19141 0.12891 0.32031 0.0625 0.3125 0.0625 0.38281 0.0625 0.44531 0.003906 2.8672zm20.66-2.8633-0.0625 2.793v8.3281l-0.0625 2.7422v5.9141l-0.0625 0.38672-0.12891 0.38281-0.25781 0.50781-0.12891 0.1875-0.1875 0.19141-0.12891 0.066406-1.082 0.12891-0.76562 0.12891-0.76562 0.1875-1.207 0.19141-0.63672 0.058593-0.89062 0.13281-0.95703 0.12891-1.1406 0.12891-0.25781 0.058593-0.25391-0.058593-0.1875-0.12891-0.1875-0.19141-0.12891-0.25391-0.12891-0.32031-0.0625-0.3125v-23.273l0.0625-0.38281 0.12891-0.38281 0.12891-0.32031 0.1875-0.32031 0.1875-0.1875 0.25391-0.12891 0.25781-0.12891 1.0156-0.12891 0.82422-0.066406 0.76562-0.12891 1.0195-0.12891 0.63281-0.066406 0.82812-0.12891 1.082-0.12891 1.2695-0.1875h0.12891l0.1875 0.058594 0.12891 0.19141 0.19141 0.1875 0.12891 0.25781 0.12891 0.38281 0.0625 0.38281 0.0625 0.44531 0.003906 2.8047zm4.0703-18.242-8.8945 1.082-20.598 2.4805-20.66 2.6094-20.66 2.7344-20.469 2.7344-20.598 2.7344-20.66 2.8555-18.754 2.6094v-250.81l18.754 1.6523 20.66 1.7148 20.598 1.7812 20.469 1.6523 20.66 1.7148 20.66 1.6523 20.598 1.5898 8.8945 0.69922zm151.29-224.05v-17.098l0.0625-0.3125 0.0625-0.32031 0.12891-0.3125 0.12891-0.19141 0.1875-0.19141 0.19141-0.12891 0.25391-0.058594h0.25391l1.0156 0.058594 0.76562 0.066406 0.76172 0.058594 1.0195 0.066406 0.63672 0.058594 0.82812 0.066406 1.082 0.12891 1.2695 0.12891 0.1875 0.058593 0.12891 0.066407 0.1875 0.19141 0.12891 0.1875 0.12891 0.25391 0.0625 0.32031 0.066406 0.32031 0.0625 0.3125v19.387l-0.0625 0.38281-0.066406 0.38672-0.0625 0.25391-0.12891 0.25391-0.12891 0.1875-0.1875 0.13281-0.12891 0.12891h-0.1875l-1.082-0.066407-0.76172-0.058593-0.82812-0.066407-1.1445-0.066406-0.69922-0.058594-0.82812-0.058593-0.95312-0.066407-1.082-0.066406-0.25391-0.0625-0.25391-0.12891-0.37891-0.37891-0.12891-0.25781-0.12891-0.3125-0.0625-0.38281-0.0625-0.38672zm-20.594 1.0195v-20.16l0.058593-0.3125 0.12891-0.25391 0.12891-0.25781 0.1875-0.1875 0.1875-0.12891 0.25781-0.12891h0.25391l1.0156 0.12891 0.76562 0.058593 0.76562 0.066407 1.0117 0.058593 0.63672 0.066407 0.89062 0.058593 1.0156 0.13281 1.3359 0.058594 0.12891 0.066406 0.1875 0.12891 0.12891 0.12891 0.1875 0.25391 0.25781 0.50781 0.058593 0.32031 0.066407 0.37891v19.645l-0.066407 0.38281-0.058593 0.38281-0.12891 0.32031-0.12891 0.25391-0.1875 0.19141-0.12891 0.12891-0.1875 0.12891h-0.12891l-1.1445-0.058594-0.76172-0.066406h-0.82812l-1.1445-0.12891-0.69531-0.066406-0.76562-0.058594-0.95312-0.066406-1.1445-0.058594h-0.25391l-0.25781-0.12891-0.375-0.38281-0.12891-0.3125-0.12891-0.32031-0.058593-0.32031zm-20.66-1.3984v-20.469l0.0625-0.32031 0.125-0.3125 0.19141-0.25391 0.12891-0.19141 0.1875-0.12891 0.19141-0.066406h0.1875l1.2109 0.066406 0.76172 0.12891 0.76562 0.058594 1.082 0.066406 0.57422 0.066406 0.82813 0.058594 1.0156 0.066406 1.207 0.12891 0.25391 0.066406 0.19141 0.058594 0.1875 0.1875 0.1875 0.19141 0.12891 0.32031 0.058594 0.25391 0.0625 0.38281 0.066406 0.38281v19.965l-0.066406 0.38281-0.0625 0.38281-0.058594 0.32031-0.12891 0.25391-0.1875 0.19141-0.1875 0.12891-0.19141 0.058593-0.25391 0.066407-0.95312-0.125h-0.76172l-0.76562-0.066407-1.1445-0.058593-0.76172-0.066407-0.82812-0.058593-1.0156-0.066407-1.2109-0.12891-0.1875-0.066406-0.19141-0.058594-0.1875-0.19141-0.12891-0.25391-0.19141-0.25391-0.125-0.32031-0.0625-0.38281zm-20.664-1.5273v-20.793l0.12891-0.38281 0.25781-0.50781 0.19141-0.1875 0.1875-0.13281 0.25391-0.058593h0.1875l1.1445 0.058593 0.76172 0.13281 0.76562 0.058594 1.0156 0.066406 0.63672 0.12891 0.82812 0.058594 1.0117 0.066406 1.2734 0.12891 0.19141 0.058594 0.1875 0.066406 0.1875 0.1875 0.12891 0.25391 0.12891 0.25781 0.12891 0.3125 0.0625 0.32031v21.098l-0.0625 0.32031-0.12891 0.32031-0.12891 0.25391-0.12891 0.1875-0.1875 0.19141-0.1875 0.066407h-0.19141l-1.0156-0.066407-0.76562-0.066406-0.82812-0.058594-1.1445-0.066406-0.69531-0.058594-0.82812-0.066406-0.95313-0.058594-1.2109-0.066406-0.1875-0.058594-0.25391-0.12891-0.1875-0.19141-0.19141-0.25391-0.12891-0.25391-0.12891-0.38281-0.12891-0.32031zm-20.66-4.2656v-18.25l0.0625-0.38281 0.0625-0.32031 0.25781-0.50781 0.19141-0.19141 0.1875-0.12891 0.25391-0.058593 0.1875-0.066407 1.082 0.12891 0.82812 0.066406 0.76562 0.12891 1.0156 0.058594 0.69531 0.066406 0.82812 0.066407 1.0156 0.12891 1.2109 0.125 0.1875 0.058594 0.1875 0.12891 0.1875 0.19141 0.19141 0.19141 0.12891 0.25391 0.12891 0.3125 0.0625 0.38672 0.0625 0.38281v20.602l-0.0625 0.44141-0.0625 0.32031-0.12891 0.32031-0.12891 0.3125-0.19141 0.19141-0.375 0.25781h-0.1875l-1.0156-0.058594-0.76562-0.066406-0.82812-0.058594-1.1445-0.13281-0.69531-0.058594-0.76562-0.066406-1.0117-0.058594-1.2109-0.066406-0.1875-0.058594-0.25391-0.12891-0.1875-0.12891-0.19141-0.25391-0.25781-0.64063-0.0625-0.38281-0.0625-0.44531v-2.6094zm-20.531 1.0234v-21.621l0.066406-0.3125 0.125-0.32031 0.12891-0.25391 0.37891-0.37891 0.25391-0.066406h0.25781l1.082 0.12891 0.76172 0.066407 0.69922 0.058593 1.0156 0.12891 0.69531 0.066406 0.82812 0.058594 1.0156 0.13281 1.2109 0.058594 0.25391 0.058594 0.1875 0.13281 0.1875 0.1875 0.25781 0.50781 0.066406 0.32031 0.0625 0.32031v21.875l-0.0625 0.38281-0.066406 0.3125-0.12891 0.25781-0.12891 0.1875-0.1875 0.19141-0.1875 0.058593-0.25391 0.066407-1.0156-0.12891-0.69922-0.066406-0.82812-0.0625-1.207-0.066406-0.63672-0.058594-0.82812-0.066406-0.95312-0.058594-1.1445-0.13281-0.25781-0.058594-0.25391-0.066406-0.1875-0.1875-0.19141-0.25391-0.12891-0.25391-0.125-0.38672-0.066406-0.38281zm-20.664-4.4531v-18.879l0.066407-0.38281 0.058593-0.32031 0.066407-0.32031 0.1875-0.25391 0.12891-0.1875 0.25781-0.12891 0.1875-0.066407h0.25781l1.082 0.066407 0.76562 0.058593 0.76172 0.12891 0.95312 0.12891 0.69922 0.066406 0.89062 0.058594 1.0156 0.066406 1.2734 0.12891 0.1875 0.058593 0.19141 0.13281 0.1875 0.1875 0.25781 0.50781 0.12891 0.32031 0.058594 0.38281v22.188l-0.058594 0.38281-0.12891 0.32031-0.12891 0.3125-0.12891 0.19141-0.1875 0.12891-0.19141 0.0625h-0.1875l-1.082-0.0625-0.76562-0.066407-0.82812-0.058593h-1.2109l-0.63672-0.12891-0.82813-0.066406-0.95312-0.058594-1.1445-0.12891-0.25781-0.066406-0.1875-0.12891-0.25781-0.1875-0.12891-0.19141-0.1875-0.32031-0.066406-0.38281-0.058594-0.38281-0.066406-0.44531zm-20.656-1.9102v-19.262l0.0625-0.38672 0.0625-0.38281 0.12891-0.3125 0.12891-0.25781 0.1875-0.1875 0.25391-0.12891 0.1875-0.066406h0.25781l1.0156 0.066406 0.76562 0.058594 0.82031 0.12891 1.0156 0.12891 0.63672 0.066406 0.82422 0.066407 1.082 0.12891 1.2109 0.1875 0.1875 0.066406 0.19141 0.12891 0.1875 0.1875 0.12891 0.19141 0.12891 0.32031 0.12891 0.3125 0.058594 0.38672v22.637l-0.058594 0.37891-0.12891 0.32031-0.12891 0.25391-0.12891 0.1875-0.1875 0.19141-0.19141 0.066406-0.1875 0.058594-1.0195-0.12891-0.76172-0.066407-0.82812-0.058593-1.1445-0.12891-0.69922-0.066406-0.82422-0.058594-1.0156-0.066406-1.082-0.12891-0.25781-0.058594-0.1875-0.13281-0.25391-0.1875-0.1875-0.25391-0.12891-0.25391-0.12891-0.38672-0.0625-0.38281-0.0625-0.44531zm9.6016 248.15v22.191l-0.066406 0.38281-0.12891 0.32031-0.125 0.32031-0.12891 0.25391-0.19141 0.1875-0.1875 0.12891-0.1875 0.066407-1.0156 0.19141-0.76562 0.12109-0.76172 0.13281-1.1445 0.1875-0.69922 0.066407-0.82422 0.1875-1.0156 0.12891-1.082 0.12891h-0.25781l-0.25391-0.058594-0.1875-0.12891-0.1875-0.19141-0.25781-0.50781-0.125-0.76562v-22l0.0625-0.44531 0.0625-0.38281 0.12891-0.38281 0.12891-0.32031 0.1875-0.25391 0.1875-0.19141 0.25391-0.12891 0.25781-0.058594 1.0156-0.19141 0.76562-0.058594 0.82031-0.12891 1.0156-0.13281 0.63672-0.058594 0.82422-0.12891 1.0195-0.12891 1.207-0.19141h0.1875l0.1875 0.066407 0.19141 0.1875 0.12891 0.19141 0.125 0.25391 0.12891 0.38281 0.066407 0.38281v0.375zm20.66 0.125v18.691l-0.066406 0.38281-0.058594 0.38281-0.066406 0.32031-0.12891 0.3125-0.19141 0.19141-0.1875 0.19141-0.12891 0.1875-0.19141 0.066407-1.082 0.12891-0.76172 0.058594-0.76562 0.12891-1.2109 0.19141-0.63672 0.058594-0.82813 0.13281-1.0156 0.12891-1.1445 0.1875h-0.25781l-0.1875-0.058594-0.1875-0.12891-0.1875-0.19141-0.19141-0.25391-0.12891-0.32031-0.0625-0.3125v-3.1211l0.0625-2.668v-5.4062l0.007813-2.6719v-8.2031l0.066406-0.38281 0.058594-0.38281 0.066406-0.38281 0.12891-0.25391 0.1875-0.25391 0.375-0.38281 0.25781-0.058594 1.082-0.066406 0.76562-0.12891 0.76172-0.058594 1.0156-0.12891 0.69922-0.13281 0.89062-0.058594 1.0156-0.12891 1.207-0.12891h0.19141l0.12891 0.058593 0.1875 0.19141 0.19141 0.19141 0.12891 0.25391 0.066406 0.32031 0.058594 0.38281 0.066406 0.44141-0.007812 2.6836zm20.598-5.1523v21.441l-0.0625 0.3125-0.12891 0.32031-0.25781 0.50781-0.1875 0.1875-0.1875 0.13281-0.1875 0.058594-1.0156 0.19141-0.76562 0.058594-0.82813 0.12891-1.1445 0.12891-0.63672 0.12891-0.82812 0.13281-1.0117 0.12891-1.1445 0.12891h-0.25l-0.19531-0.066406-0.25391-0.12891-0.1875-0.19141-0.12891-0.25391-0.12891-0.3125-0.058594-0.32031-0.0625-0.38281 0.0625-2.6094v-2.668l0.058594-2.6133v-13.727l0.066406-0.38281 0.125-0.32031 0.12891-0.3125 0.19141-0.25391 0.1875-0.19141 0.19531-0.12891 0.25-0.058593 1.0156-0.13281 0.82813-0.058594 0.76562-0.12891 1.0156-0.12891 0.69531-0.066406 0.82812-0.12891 1.0156-0.12891 1.2109-0.12891h0.1875l0.375 0.25781 0.25781 0.50781 0.12891 0.32031 0.0625 0.38281-0.003906 0.36719zm20.656-2.543v7.8281l-0.0625 2.6094v10.234l-0.125 0.76562-0.0625 0.32031-0.25781 0.50781-0.1875 0.19141-0.1875 0.12891-0.1875 0.058594-1.0156 0.12891-0.69922 0.12891-0.82812 0.066406-1.1445 0.1875-0.69531 0.066406-0.82812 0.12891-1.0195 0.12891-1.207 0.19141h-0.1875l-0.1875-0.066407-0.1875-0.12891-0.19141-0.1875-0.12891-0.25781-0.12891-0.25391-0.0625-0.3125-0.0625-0.38672v-20.875l0.0625-0.44141 0.0625-0.32031 0.12891-0.38281 0.12891-0.25781 0.19141-0.25391 0.1875-0.1875 0.1875-0.12891 0.1875-0.066406 1.1445-0.12891 0.82812-0.12891 0.76562-0.066406 1.0156-0.12891 0.69531-0.12891 0.76563-0.058594 1.0117-0.066406 1.2109-0.12891h0.1875l0.1875 0.066406 0.1875 0.12891 0.1875 0.1875 0.12891 0.25391 0.12891 0.32031 0.0625 0.32031 0.003906 0.39453zm20.66-2.2852v5.1484l-0.0625 2.5391v7.5664l-0.0625 2.5391v2.8594l-0.0625 0.38672-0.12891 0.3125-0.12891 0.25391-0.125 0.19141-0.19141 0.1875-0.1875 0.13281-0.1875 0.058594-0.95312 0.12891-0.76562 0.066406-0.82422 0.12891-1.082 0.12891-0.69531 0.058594-0.82812 0.12891-1.0156 0.066406-1.2109 0.19141h-0.25391l-0.1875-0.066406-0.1875-0.12891-0.19141-0.19141-0.12891-0.25391-0.12891-0.3125-0.0625-0.32031v-21.234l0.0625-0.32031 0.12891-0.38281 0.12891-0.25391 0.19141-0.25781 0.1875-0.1875 0.1875-0.12891 0.25391-0.066406 1.082-0.12891 0.82812-0.058593 0.76562-0.066407 1.082-0.12891h0.63672l0.82812-0.12891 0.95312-0.12891 1.207-0.066406h0.1875l0.25391 0.066406 0.12891 0.1875 0.1875 0.19141 0.19141 0.25391 0.0625 0.32031 0.12891 0.32031-0.007812 0.39844zm20.531-2.0352v20.34l-0.058593 0.32031-0.12891 0.32031-0.12891 0.25781-0.12891 0.25-0.19141 0.12891-0.1875 0.12891-0.19141 0.066406-1.0156 0.12891-0.76562 0.058593-0.76172 0.12891-1.082 0.13281-0.76172 0.058594-0.82812 0.12891-1.0156 0.12891-1.2109 0.12891h-0.1875l-0.19141-0.058593-0.1875-0.12891-0.19141-0.19141-0.12891-0.25391-0.125-0.32031-0.0625-0.3125v-0.32031l0.003907-2.4961v-18.051l0.0625-0.38281 0.125-0.3125 0.12891-0.32031 0.19141-0.1875 0.1875-0.19141 0.19141-0.12891 0.1875-0.066406 1.1445-0.12891 0.82422-0.058594 0.76562-0.066406 1.082-0.058594 0.57422-0.13281 0.82813-0.058594 1.0156-0.12891 1.207-0.12891 0.19141 0.058593 0.1875 0.066407 0.19141 0.12891 0.12891 0.19141 0.12891 0.25391 0.12891 0.3125 0.058594 0.38281zm20.664-2.1016v20.023l-0.0625 0.32031-0.12891 0.32031-0.25781 0.50781-0.375 0.25781-0.19141 0.058594-1.0156 0.13281-0.76172 0.058594-0.82812 0.12891-1.1445 0.12891-0.69531 0.066406-0.82813 0.12891-0.95312 0.058594-1.207 0.12891h-0.19141l-0.25391-0.058593-0.1875-0.12891-0.1875-0.19141-0.12891-0.1875-0.12891-0.25781-0.12891-0.3125v-0.38281l0.058594-2.4805v-7.375l0.066406-2.4805v-7.9453l0.058594-0.3125 0.12891-0.32031 0.25781-0.50781 0.1875-0.19141 0.25391-0.12891h0.19141l1.1445-0.12891 0.76562-0.066406 0.69922-0.058594 1.0781-0.12891 0.63672-0.066406 0.82812-0.058594 1.0156-0.12891 1.2695-0.12891h0.19141l0.375 0.25781 0.12891 0.1875 0.12891 0.25391 0.12891 0.32031 0.0625 0.32031-0.003906 0.36719zm20.656 0.44531v16.91l-0.0625 0.38281-0.066406 0.32031-0.0625 0.3125-0.12891 0.25391-0.1875 0.19141-0.12891 0.19141-0.1875 0.058594-0.1875 0.066406-1.082 0.058594-0.76172 0.12891-0.76562 0.066407-1.1445 0.12891-0.69922 0.066406-0.82812 0.058594-0.95312 0.12891-1.207 0.12891h-0.25781l-0.1875-0.058594-0.19141-0.12891-0.1875-0.19141-0.19141-0.19141-0.12891-0.3125-0.0625-0.32031v-2.7344l0.0625-2.4141v-14.688l0.0625-0.38281 0.0625-0.3125 0.0625-0.32031 0.1875-0.32031 0.12891-0.1875 0.19141-0.19141 0.1875-0.12891 0.25781-0.066406 1.0781-0.058594 0.76172-0.066406 0.76562-0.12891 1.082-0.058593 0.63672-0.066407 0.82813-0.058593 1.0156-0.066407 1.2734-0.12891 0.1875 0.066406 0.1875 0.058594 0.12891 0.12891 0.1875 0.19141 0.12891 0.25391 0.0625 0.25391 0.066407 0.38281 0.0625 0.38281v2.4102zm4.0703-15.77-8.8359 0.64062-20.66 1.8398-20.531 1.8477-20.66 1.8398-20.66 2.2266-20.66 2.2227-20.66 2.2266-18.559 2.168v-215.78l18.559 1.4609 20.66 1.3984 20.66 1.4688 20.66 1.3945 20.66 1.2734 20.531 1.1406 20.66 1.2148 8.8359 0.50781zm151.36-198.23v-18.379l0.066407-0.32031 0.12891-0.25391 0.1875-0.25391 0.1875-0.1875 0.1875-0.13281 0.1875-0.058594 0.25391-0.066406 1.0195 0.066406h2.5391l0.63672 0.058594h3.1133l0.25391 0.066406 0.19141 0.066406 0.1875 0.1875 0.12891 0.19141 0.1875 0.1875 0.0625 0.32031 0.0625 0.25391 0.0625 0.32031v18.062l-0.0625 0.3125-0.0625 0.38281-0.0625 0.25781-0.1875 0.25391-0.12891 0.1875-0.1875 0.12891-0.19141 0.066406-0.25391 0.066407h-1.7812l-0.76562-0.066407h-3.6211l-1.1445-0.066406h-0.25391l-0.375-0.25781-0.1875-0.1875-0.1875-0.25781-0.12891-0.25391-0.066406-0.3125-0.003906-0.38281zm-20.66-0.25391v-18.445l0.0625-0.25391 0.125-0.3125 0.1875-0.19141 0.19141-0.19141 0.1875-0.12891 0.1875-0.058594 0.25391-0.066406 1.082 0.066406h4.0742l1.0156 0.058594h1.457l0.19141 0.12891 0.12891 0.12891 0.1875 0.19141 0.12891 0.19141 0.0625 0.3125 0.058594 0.25781 0.066406 0.38281v18.059l-0.066406 0.38672-0.058594 0.3125-0.0625 0.25391-0.12891 0.25781-0.31641 0.31641-0.19141 0.066406-0.1875 0.058594h-5.3477l-0.95312-0.058594h-1.1445l-0.25391-0.066406-0.1875-0.058594-0.1875-0.12891-0.19141-0.25781-0.1875-0.1875-0.125-0.32031-0.0625-0.3125v-0.39062zm-20.66-0.63281v-18.574l0.12891-0.32031 0.12891-0.25391 0.12891-0.1875 0.1875-0.19141 0.19141-0.12891 0.25391-0.066406 0.1875-0.058594 1.082 0.058594 0.76563 0.066406h0.76562l1.082 0.058594h0.63672l0.82422 0.066406h1.0234l1.2656 0.066407 0.19141 0.058593 0.1875 0.066407 0.1875 0.1875 0.12891 0.19141 0.12891 0.1875 0.12891 0.25781 0.066406 0.3125v18.895l-0.066406 0.32031-0.25781 0.50781-0.12891 0.1875-0.1875 0.19141-0.1875 0.066406h-1.2031l-0.76562-0.066406h-0.82422l-1.1445-0.066406h-1.5273l-1.0156-0.058594-1.1445-0.066406h-0.1875l-0.25391-0.12891-0.19141-0.12891-0.1875-0.1875-0.12891-0.25391-0.25781-0.64062-0.003907-0.36719zm-20.531-0.63672v-18.758l0.0625-0.32031 0.25781-0.50781 0.19141-0.1875 0.1875-0.13281 0.1875-0.058594h0.1875l1.1445 0.058594h1.5273l1.0195 0.066406h0.69922l0.82812 0.066406 1.0117 0.058594 1.207 0.066406h0.19141l0.1875 0.12891 0.19141 0.12891 0.125 0.1875 0.12891 0.25391 0.12891 0.25781 0.0625 0.3125v19.023l-0.0625 0.32031-0.12891 0.3125-0.12891 0.19531-0.125 0.19141-0.19141 0.12891-0.1875 0.12891h-1.2031l-0.76562-0.066407h-1.9688l-0.69922-0.058593h-0.76562l-1.0156-0.066407h-1.207l-0.1875-0.058593-0.1875-0.066407-0.1875-0.19141-0.19141-0.1875-0.25781-0.50781-0.0625-0.38672zm-20.66-0.69922v-18.957l0.058594-0.25781 0.12891-0.25391 0.125-0.25 0.19141-0.1875 0.1875-0.12891 0.1875-0.066407 0.25781-0.066406 1.0781 0.066406h0.82812l0.69922 0.066407 1.0195 0.058593h0.69531l0.82812 0.066407h1.0156l1.207 0.058593 0.1875 0.066407 0.25781 0.0625 0.12891 0.19141 0.1875 0.1875 0.1875 0.19141 0.0625 0.32031 0.12891 0.25391v19.207l-0.12891 0.3125-0.0625 0.32031-0.1875 0.25391-0.31641 0.31641-0.25781 0.066406h-2.7305l-1.207-0.066406-0.64062-0.058594h-1.8398l-1.1445-0.066406-0.25781-0.058594-0.1875-0.066406-0.37891-0.37891-0.125-0.25391-0.12891-0.25391-0.058593-0.32031v-0.375zm-20.66-3.375v-16.406l0.058593-0.38672 0.066407-0.25391 0.25781-0.50781 0.1875-0.1875 0.1875-0.12891 0.1875-0.066406h0.1875l1.082 0.066406 0.82812 0.058594h0.76562l0.95312 0.066406 0.69922 0.058594 0.82812 0.058594 1.0156 0.066406 1.2695 0.12891h0.1875l0.19141 0.12891 0.1875 0.12891 0.19141 0.19141 0.12891 0.25391 0.12891 0.32031 0.0625 0.25391v19.406l-0.0625 0.3125-0.12891 0.32031-0.12891 0.19141-0.19141 0.25391-0.1875 0.12891-0.19141 0.058594h-0.1875l-1.0156-0.058594h-0.76562l-0.76172-0.066406-1.2734-0.058594h-0.63672l-0.82422-0.066406-1.0156-0.058594-1.1445-0.066406h-0.1875l-0.1875-0.12109-0.1875-0.13281-0.1875-0.25391-0.25781-0.50781-0.066406-0.38672-0.058594-0.38281zm-20.66-1.082v-16.59l0.0625-0.38281 0.0625-0.32031 0.12891-0.25391 0.125-0.25391 0.1875-0.12891 0.25781-0.12891 0.1875-0.12891h0.25391l1.0156 0.058594 0.76562 0.066406h0.76562l1.0156 0.058594 0.69922 0.066406 0.88672 0.058594 1.0195 0.066406 1.207 0.12891h0.1875l0.1875 0.12891 0.19531 0.12891 0.125 0.19141 0.12891 0.25391 0.12891 0.32031 0.0625 0.3125v19.598l-0.0625 0.3125-0.12891 0.32031-0.12891 0.25391-0.125 0.19141-0.19531 0.12891-0.1875 0.12891h-0.1875l-1.0195-0.066406h-0.75781l-0.82812-0.058594-1.207-0.066406-0.63672-0.058594-0.76172-0.066406h-1.0195l-1.1445-0.0625-0.25391-0.066406-0.1875-0.12891-0.25781-0.12891-0.1875-0.25391-0.125-0.25391-0.12891-0.25391-0.0625-0.38281-0.0625-0.31641-0.003906-2.4219zm-20.598 1.3438v-19.645l0.0625-0.32031 0.12891-0.25391 0.1875-0.25391 0.1875-0.19141 0.19141-0.12891 0.1875-0.066406h0.25391l1.0156 0.066406 0.82812 0.058594 0.76562 0.066406h1.0117l0.69922 0.066406 0.82812 0.058594 1.0195 0.066406 1.2695 0.058594 0.1875 0.066406 0.12891 0.12891 0.1875 0.12891 0.1875 0.25391 0.12891 0.19141 0.0625 0.3125 0.125 0.64062v19.129l-0.0625 0.38281-0.0625 0.38672-0.0625 0.25391-0.12891 0.25391-0.1875 0.19141-0.1875 0.12891-0.12891 0.12891h-0.1875l-1.082-0.066406h-0.76172l-0.76562-0.058594-1.2109-0.066406h-0.63672l-0.82812-0.058594-1.0156-0.066406-1.1445-0.058594-0.25391-0.066406-0.1875-0.066406-0.19141-0.1875-0.1875-0.19141-0.1875-0.25391-0.12891-0.3125-0.0625-0.32031v-0.38672zm9.6641 217.75-0.0625 2.418v7.125l-0.0625 2.4141v5.0898l-0.0625 0.3125-0.12891 0.32031-0.058593 0.25391-0.32031 0.32031-0.25391 0.12891-0.19141 0.058594-1.0117 0.066406-0.69922 0.12891-0.76562 0.066406-1.2109 0.058594-0.63672 0.058594-0.82812 0.066406-1.0156 0.12891-1.1445 0.12891-0.25391-0.058594-0.1875-0.066406-0.19141-0.12891-0.1875-0.1875-0.1875-0.19141-0.12891-0.25391-0.0625-0.32031v-20.031l0.0625-0.32031 0.12891-0.32031 0.375-0.50781 0.19141-0.12891 0.1875-0.12891 0.25391-0.066407 1.0156-0.058593 0.82812-0.058594 0.76563-0.066406 1.0117-0.058594 0.69922-0.066406 0.82812-0.066407 0.95312-0.058593 1.207-0.12891h0.25781l0.375 0.25781 0.12891 0.19141 0.1875 0.25391 0.0625 0.3125 0.0625 0.32031 0.0625 0.38281zm20.594-4.0039v9.4727l-0.0625 2.3555v7.0664l-0.0625 0.3125-0.0625 0.32031-0.066407 0.32031-0.12891 0.1875-0.1875 0.25391-0.12891 0.12891-0.19141 0.12891-0.19141 0.066406-1.0117 0.058594-0.76563 0.066406-0.82812 0.12891-1.1445 0.066406-0.63672 0.058594-0.82422 0.066406-0.95703 0.058594-1.2695 0.12891h-0.25391l-0.1875-0.058594-0.1875-0.12891-0.19141-0.19141-0.1875-0.25391-0.12891-0.25391-0.0625-0.32031v-2.668l0.0625-2.3555v-14.309l0.0625-0.38281 0.125-0.64062 0.1875-0.25391 0.12891-0.25391 0.375-0.25781h0.25391l1.1445-0.12891 0.76562-0.066406 0.76562-0.058594 1.0156-0.066406 0.69922-0.066407 0.82812-0.058593 1.0117-0.066407 1.207-0.12891 0.19141 0.066406 0.19141 0.058594 0.1875 0.12891 0.19141 0.19141 0.25781 0.50781 0.0625 0.38672zm20.594 0.70312v16.348l-0.0625 0.32031-0.0625 0.3125-0.0625 0.32031-0.12891 0.25391-0.1875 0.19141-0.19141 0.12891-0.12891 0.12891-0.1875 0.058594-1.082 0.066406-0.76563 0.066407-0.76562 0.058593-1.207 0.12891-0.63672 0.066406-0.82422 0.058594-1.0156 0.12891-1.1445 0.066406h-0.25391l-0.1875-0.066406-0.1875-0.12891-0.1875-0.1875-0.1875-0.25781-0.12891-0.25391-0.066406-0.3125v-2.6758l0.066406-2.2891v-14.125l0.058594-0.38281 0.066406-0.32031 0.058594-0.3125 0.12891-0.25391 0.1875-0.25781 0.375-0.25781 0.25391-0.058594 1.082-0.066406 0.82812-0.058594 0.76563-0.066406h0.95312l0.69922-0.058594 0.82812-0.12891 1.0156-0.066406 1.2695-0.12891 0.1875 0.058593 0.12891 0.066407 0.19141 0.12891 0.1875 0.19141 0.12891 0.25391 0.0625 0.25391 0.0625 0.32031 0.0625 0.38281v2.3555zm20.598-3.375v9.3555l-0.0625 2.2891v7.2539l-0.0625 0.25391-0.12891 0.32031-0.0625 0.1875-0.1875 0.25781-0.12891 0.12891-0.19141 0.12891h-0.1875l-1.0156 0.058593h-0.76562l-0.82812 0.066407-1.1406 0.058593-0.64062 0.066407-0.82422 0.058593h-1.0156l-1.1445 0.066407h-0.25781l-0.1875-0.066407-0.25391-0.12891-0.1875-0.1875-0.12891-0.19141-0.125-0.25391-0.066406-0.32031-0.0625-0.3125 0.0625-2.3555 0.007812-2.2969 0.066406-2.293v-6.9922l-0.003906-2.2891v-2.7422l0.058594-0.3125 0.12891-0.32031 0.125-0.25391 0.19141-0.25391 0.375-0.25781 0.25781-0.066406h1.0781l0.76562-0.058594h0.76172l1.0195-0.12891h1.5234l1.0156-0.066406 1.207-0.058594h0.1875l0.19141 0.058594 0.1875 0.19141 0.12891 0.1875 0.25781 0.50781 0.0625 0.32031 0.003906 0.39062zm20.66-1.0156v6.9336l-0.0625 2.2891v9.0977l-0.0625 0.3125-0.0625 0.32031-0.0625 0.25391-0.12891 0.25781-0.12891 0.1875-0.12891 0.12891-0.1875 0.12891h-0.19141l-1.0117 0.12891-0.76562 0.066406h-0.82812l-1.1406 0.058594-0.69922 0.066406-0.82812 0.058594-1.0156 0.066406-1.1445 0.058594h-0.25391l-0.19141-0.058594-0.25391-0.19141-0.12891-0.12891-0.1875-0.25391-0.0625-0.25391-0.0625-0.32031-0.0625-0.38281 0.0625-2.2266v-4.5781l0.0625-2.2891v-9.6094l0.0625-0.32031 0.0625-0.3125 0.12891-0.25781 0.1875-0.1875 0.1875-0.19141 0.19141-0.058594 0.25391-0.066406 1.082-0.058594 0.76562-0.066406h0.76562l1.082-0.066406 0.69922-0.058594h0.82812l1.0117-0.058594 1.207-0.066406h0.19141l0.1875 0.12891 0.19141 0.12891 0.125 0.19141 0.25781 0.50781 0.0625 0.32031 0.003906 0.37109zm20.535-1.0195v18.512l-0.066406 0.3125-0.058594 0.25781-0.12891 0.25391-0.125 0.1875-0.19141 0.12891-0.1875 0.066406-0.25781 0.058594-1.0117 0.066406-0.69922 0.066406-0.76562 0.058594-1.1445 0.066406h-0.69922l-0.82812 0.058594-1.0156 0.066406-1.1445 0.058594h-0.25391l-0.25391-0.058594-0.19141-0.19141-0.1875-0.12891-0.25781-0.50781-0.0625-0.32031v-18.957l0.0625-0.32031 0.25781-0.50781 0.1875-0.19141 0.19141-0.1875 0.25391-0.066406 0.25391-0.058594 1.082-0.066406 0.76562-0.058594h0.76562l1.082-0.066406 0.63672-0.066406h0.82422l1.0234-0.058594 1.1367-0.066406h0.25781l0.1875 0.12891 0.19141 0.13281 0.125 0.1875 0.12891 0.19141 0.058593 0.3125 0.066407 0.32031v0.38672zm20.785 1.7188v2.2227l-0.066406 2.293v4.5156l-0.058594 2.2227v4.8359l-0.0625 0.32031-0.12891 0.25391-0.125 0.25391-0.12891 0.1875-0.1875 0.19141-0.1875 0.066406-0.1875 0.058594h-1.0156l-0.76562 0.066406-0.82812-0.066406h-1.7812l-0.82812 0.066406h-2.4102l-0.25781-0.066406-0.1875-0.12891-0.19141-0.19141-0.12891-0.25391-0.125-0.25391-0.066407-0.25391-0.0625-0.32031 0.0625-2.2891v-4.5156l0.066407-2.2266v-9.4766l0.0625-0.32031 0.125-0.3125 0.12891-0.25781 0.1875-0.1875 0.19141-0.12891 0.1875-0.12891h0.1875l1.1445-0.066406h1.5273l1.0156-0.058594h0.69922l0.89062 0.058594h0.95312l1.207-0.058594 0.1875 0.058594 0.1875 0.066406 0.1875 0.12891 0.19141 0.1875 0.12891 0.25391 0.125 0.25781 0.058594 0.3125 0.066406 0.38672 0.007812 2.2969zm20.531-2.6719v18.383l-0.0625 0.25391-0.12891 0.3125-0.25781 0.38281-0.19141 0.1875-0.1875 0.066406-0.1875 0.058594h-1.7812l-0.82813 0.066406h-1.8438l-0.82812 0.058594h-2.3477l-0.25391-0.058594-0.1875-0.19141-0.19141-0.12891-0.125-0.25391-0.25781-0.50781v-0.32031l0.0625-2.2891v-6.8047l0.0625-2.2266v-7.1875l0.066406-0.32031 0.12891-0.32031 0.12891-0.25391 0.12891-0.1875 0.1875-0.13281 0.25391-0.058593 0.1875-0.066407h1.9062l0.76562-0.058593h3.4922l1.2695-0.066407 0.1875 0.066407 0.1875 0.058593 0.19141 0.12891 0.12891 0.19141 0.25781 0.50781 0.0625 0.38672v0.32422zm4.0703-12.27-8.8359 0.12891-20.66 0.32031-20.531 0.69922-20.66 0.88672-20.66 0.95312-20.66 1.0195-20.598 1.4609-18.625 1.3359v-189.33l18.625 0.82812 20.598 0.82812 20.66 0.82812 41.32 1.1484 20.531 0.50781 20.66 0.19141 8.8359 0.058594zm16.594 14.242v2.2227l-0.0625 2.293v4.5156l-0.0625 2.2227v4.7734l-0.0625 0.3125-0.0625 0.25391-0.12891 0.19141-0.12891 0.1875-0.1875 0.13281-0.12891 0.058594-0.1875 0.066406h-2.6094l-1.1445 0.058594h-0.69531l-0.82813 0.066406h-2.4727l-0.1875-0.066406-0.1875-0.1875-0.12891-0.13281-0.1875-0.25391-0.12891-0.25391-0.066406-0.3125v-18.703l0.066406-0.3125 0.12891-0.25391 0.1875-0.25781 0.12891-0.1875 0.1875-0.12891 0.1875-0.066407 0.19141-0.058593h1.207l0.82422-0.066407h1.7773l0.63672-0.058593h3.3008l0.19141 0.058593 0.12891 0.19141 0.1875 0.1875 0.12891 0.25781 0.0625 0.25391 0.0625 0.3125 0.0625 0.38672-0.003906 2.2969zm0.058594-222.39v18.379l-0.0625 0.32031-0.12891 0.32031-0.12891 0.1875-0.375 0.38281-0.19141 0.058594-0.1875 0.066406-1.0156-0.066406h-3.4297l-0.82813-0.058594h-2.4141l-0.1875-0.12891-0.1875-0.13281-0.1875-0.1875-0.1875-0.25391-0.12891-0.25781-0.066406-0.38281v-18.695l0.066406-0.25391 0.12891-0.25391 0.1875-0.25 0.1875-0.19531 0.1875-0.12891 0.1875-0.058594h4.5781l0.82812 0.058594h2.2852l0.1875 0.066406 0.19141 0.058594 0.1875 0.12891 0.1875 0.19141 0.12891 0.19141 0.12891 0.3125 0.0625 0.25391z" fill="#9b9b9b" fill-rule="evenodd"/>
</svg>
